<?xml version="1.0" encoding="UTF-8"?>
<svg version="1.1" xmlns="http://www.w3.org/2000/svg" width="175" height="175">
<path d="M0 0 C0.77943466 0.00222061 1.55886932 0.00444122 2.36192322 0.00672913 C3.24276077 0.00680466 4.12359833 0.00688019 5.03112793 0.00695801 C5.98841293 0.01211929 6.94569794 0.01728058 7.93199158 0.02259827 C9.39480812 0.02472069 9.39480812 0.02472069 10.88717651 0.02688599 C14.01542675 0.03250319 17.14360656 0.04505859 20.27183533 0.05775452 C22.38706867 0.0627673 24.50230313 0.06733059 26.61753845 0.07142639 C31.81482829 0.0824782 37.01207678 0.09923305 42.20933533 0.12025452 C42.20933533 0.78025452 42.20933533 1.44025452 42.20933533 2.12025452 C42.8358197 2.21822327 43.46230408 2.31619202 44.10777283 2.41712952 C44.92503845 2.56666077 45.74230408 2.71619202 46.58433533 2.87025452 C47.3964447 3.00947327 48.20855408 3.14869202 49.04527283 3.29212952 C51.20933533 4.12025452 51.20933533 4.12025452 52.37339783 5.84681702 C53.69388316 9.43804348 54.96736081 13.04012564 56.20933533 16.65931702 C57.07374411 19.24392569 57.07374411 19.24392569 59.20933533 21.12025452 C59.33433533 24.74525452 59.33433533 24.74525452 59.20933533 28.12025452 C59.86933533 28.45025452 60.52933533 28.78025452 61.20933533 29.12025452 C61.66167967 32.09449245 62.00678515 35.0036447 62.27183533 37.99525452 C62.42647314 39.63876049 62.5839138 41.28200576 62.74449158 42.92494202 C62.84322571 44.02298157 62.84322571 44.02298157 62.94395447 45.14320374 C63.17431798 47.32721309 63.17431798 47.32721309 64.20933533 50.12025452 C64.86933533 50.12025452 65.52933533 50.12025452 66.20933533 50.12025452 C66.20933533 51.44025452 66.20933533 52.76025452 66.20933533 54.12025452 C64.20933533 55.87025452 64.20933533 55.87025452 62.20933533 57.12025452 C62.40404643 59.07024581 62.40404643 59.07024581 63.20933533 61.12025452 C65.21147478 62.26730702 65.21147478 62.26730702 67.20933533 63.12025452 C67.32071692 68.57795263 67.12591514 73.73534811 66.20933533 79.12025452 C61.75433533 79.61525452 61.75433533 79.61525452 57.20933533 80.12025452 C56.54933533 82.10025452 55.88933533 84.08025452 55.20933533 86.12025452 C56.01371033 86.53275452 56.81808533 86.94525452 57.64683533 87.37025452 C60.20933533 89.12025452 60.20933533 89.12025452 60.89683533 91.24525452 C61.05152283 92.17337952 61.05152283 92.17337952 61.20933533 93.12025452 C61.86933533 93.45025452 62.52933533 93.78025452 63.20933533 94.12025452 C58.11309474 96.46050184 53.16836131 98.05286214 47.70933533 99.30775452 C46.62845642 99.57362366 46.62845642 99.57362366 45.52574158 99.84486389 C40.98586886 100.90799864 36.89493466 101.19276974 32.20933533 101.12025452 C31.43203064 101.28396545 30.65472595 101.44767639 29.85386658 101.61634827 C25.8760348 102.3743103 21.93544171 102.22419247 17.89683533 102.18275452 C17.0608783 102.1782428 16.22492126 102.17373108 15.3636322 102.16908264 C13.31216884 102.15735999 11.2607426 102.13942655 9.20933533 102.12025452 C9.20933533 101.46025452 9.20933533 100.80025452 9.20933533 100.12025452 C7.55933533 100.78025452 5.90933533 101.44025452 4.20933533 102.12025452 C4.20933533 101.46025452 4.20933533 100.80025452 4.20933533 100.12025452 C3.15746033 100.42962952 3.15746033 100.42962952 2.08433533 100.74525452 C-0.79066467 101.12025452 -0.79066467 101.12025452 -3.47816467 100.18275452 C-6.72563905 99.14111179 -8.52040988 99.11985439 -11.85316467 99.30775452 C-15.75800302 99.39020963 -16.55578379 99.28467113 -19.91566467 96.93275452 C-21.79066467 94.12025452 -21.79066467 94.12025452 -22.29066467 91.49525452 C-21.79066467 89.12025452 -21.79066467 89.12025452 -20.22816467 87.74525452 C-19.75378967 87.20900452 -19.27941467 86.67275452 -18.79066467 86.12025452 C-19.11911199 81.52199202 -19.44557754 77.46534165 -22.79066467 74.12025452 C-23.13089254 72.12141583 -23.46395565 70.1213473 -23.79066467 68.12025452 C-24.45066467 67.13025452 -25.11066467 66.14025452 -25.79066467 65.12025452 C-29.95090939 65.12025452 -32.80475828 66.39018027 -36.04066467 68.87025452 C-42.4636608 75.48937267 -41.51730833 86.42940819 -41.79066467 95.12025452 C-40.14066467 95.45025452 -38.49066467 95.78025452 -36.79066467 96.12025452 C-36.79066467 97.11025452 -36.79066467 98.10025452 -36.79066467 99.12025452 C-40.16401742 98.79589368 -43.10873518 98.41750584 -46.22816467 97.05775452 C-48.74819782 93.93291341 -48.0479608 91.04402049 -47.79066467 87.12025452 C-53.09081285 86.6154785 -55.61031785 87.91208137 -59.79066467 91.12025452 C-60.99627651 92.1029331 -60.99627651 92.1029331 -60.88832092 93.96791077 C-60.87671936 94.6988092 -60.8651178 95.42970764 -60.85316467 96.18275452 C-60.83253967 97.48212952 -60.81191467 98.78150452 -60.79066467 100.12025452 C-65.66566467 98.24525452 -65.66566467 98.24525452 -66.79066467 97.12025452 C-66.81019592 94.94056702 -66.81019592 94.94056702 -66.60316467 92.24525452 C-66.54773499 91.36095764 -66.4923053 90.47666077 -66.43519592 89.56556702 C-65.79066467 87.12025452 -65.79066467 87.12025452 -63.86488342 85.29994202 C-61.79066467 84.12025452 -61.79066467 84.12025452 -59.79066467 84.12025452 C-60.12066467 81.48025452 -60.45066467 78.84025452 -60.79066467 76.12025452 C-75.62642674 75.15514129 -75.62642674 75.15514129 -88.79066467 81.12025452 C-89.45066467 81.12025452 -90.11066467 81.12025452 -90.79066467 81.12025452 C-89.84305636 77.70886459 -88.9736981 76.26668126 -86.17347717 74.02650452 C-82.39311003 71.89622834 -79.58602106 71.34169607 -75.29066467 70.87025452 C-74.02222717 70.72072327 -72.75378967 70.57119202 -71.44691467 70.41712952 C-67.79066467 70.12025452 -67.79066467 70.12025452 -64.66566467 70.33509827 C-60.7533423 70.04273722 -59.20625521 68.5006525 -56.29066467 65.93275452 C-55.33804749 65.10259827 -54.3854303 64.27244202 -53.40394592 63.41712952 C-52.54156311 62.65916077 -51.6791803 61.90119202 -50.79066467 61.12025452 C-49.68974159 60.3033649 -48.58634716 59.48976868 -47.47816467 58.68275452 C-40.57204181 52.09784667 -38.45888159 45.55748943 -37.42347717 36.26087952 C-36.4419867 31.38977867 -33.90348181 27.90849424 -30.79066467 24.12025452 C-29.62470764 24.62685608 -29.62470764 24.62685608 -28.43519592 25.14369202 C-25.60242379 26.1897674 -24.55756891 26.14503386 -21.79066467 25.12025452 C-20.207454 19.64250686 -20.207454 19.64250686 -18.79066467 14.12025452 C-18.13066467 14.12025452 -17.47066467 14.12025452 -16.79066467 14.12025452 C-16.83191467 13.37775452 -16.87316467 12.63525452 -16.91566467 11.87025452 C-16.77879872 8.85920355 -16.52660794 7.56635639 -14.79066467 5.12025452 C-10.6482916 1.73104018 -8.10701035 0.74934668 -2.79066467 1.12025452 C-1.79066467 0.12025452 -1.79066467 0.12025452 0 0 Z M-24.79066467 49.12025452 C-23.79066467 51.12025452 -23.79066467 51.12025452 -23.79066467 51.12025452 Z " fill="#B98D3F" transform="translate(92.79066467285156,26.879745483398438)"/>
<path d="M0 0 C0 3.3 0 6.6 0 10 C-3.63 10.33 -7.26 10.66 -11 11 C-10.505 11.495 -10.505 11.495 -10 12 C-9.91156207 14.44830426 -9.88471248 16.86820599 -9.90234375 19.31640625 C-9.9037587 20.04746078 -9.90517365 20.77851532 -9.90663147 21.53172302 C-9.91224592 23.87535632 -9.92480078 26.21889539 -9.9375 28.5625 C-9.94251314 30.14778508 -9.94707637 31.73307166 -9.95117188 33.31835938 C-9.96222003 37.2122761 -9.97949428 41.10612205 -10 45 C-8.02 45.33 -6.04 45.66 -4 46 C-4.33 45.67 -4.66 45.34 -5 45 C-6 44 -6 44 -6.11352539 42.14233398 C-6.10567017 40.95619507 -6.10567017 40.95619507 -6.09765625 39.74609375 C-6.09282227 38.46508789 -6.09282227 38.46508789 -6.08789062 37.15820312 C-6.07532227 35.81145508 -6.07532227 35.81145508 -6.0625 34.4375 C-6.05798828 33.53580078 -6.05347656 32.63410156 -6.04882812 31.70507812 C-6.03700225 29.46998686 -6.0205222 27.23502563 -6 25 C-4.35 24.67 -2.7 24.34 -1 24 C-0.67 34.89 -0.34 45.78 0 57 C0.66 57 1.32 57 2 57 C1.83701416 56.14390137 1.67402832 55.28780273 1.50610352 54.40576172 C1.00638334 51.04295588 0.88616854 47.90460706 0.90234375 44.5078125 C0.90717773 42.70957031 0.90717773 42.70957031 0.91210938 40.875 C0.92467773 39.01875 0.92467773 39.01875 0.9375 37.125 C0.94201172 35.86429688 0.94652344 34.60359375 0.95117188 33.3046875 C0.9629204 30.20307614 0.97934833 27.10156275 1 24 C2.32 24 3.64 24 5 24 C6.7511573 22.5833253 6.7511573 22.5833253 8 21 C8.33 21.33 8.66 21.66 9 22 C9.33 18.37 9.66 14.74 10 11 C13.60805876 14.60805876 13.56581212 16.94357337 13.75 21.75 C13.81380859 22.78640625 13.81380859 22.78640625 13.87890625 23.84375 C14.1074279 28.34647286 13.84476132 32.54787955 13 37 C12.67 37.33 12.34 37.66 12 38 C15.3 38.33 18.6 38.66 22 39 C22 43.29 22 47.58 22 52 C21.67 52 21.34 52 21 52 C20.67 53.65 20.34 55.3 20 57 C18.35 57.33 16.7 57.66 15 58 C14.67 59.32 14.34 60.64 14 62 C-13.26133768 62.29070147 -13.26133768 62.29070147 -19 59 C-19 58.01 -19 57.02 -19 56 C-20.32 56 -21.64 56 -23 56 C-23 56.66 -23 57.32 -23 58 C-23.66 58 -24.32 58 -25 58 C-25.495 58.99 -25.495 58.99 -26 60 C-26.28875 59.21625 -26.5775 58.4325 -26.875 57.625 C-27.84912254 54.90328368 -27.84912254 54.90328368 -30 53 C-30.34022786 51.00116131 -30.67329097 49.00109278 -31 47 C-31.66 46.01 -32.32 45.02 -33 44 C-37.16024472 44 -40.01409361 45.26992576 -43.25 47.75 C-49.67299613 54.36911815 -48.72664366 65.30915367 -49 74 C-47.35 74.33 -45.7 74.66 -44 75 C-44 75.99 -44 76.98 -44 78 C-47.37335275 77.67563916 -50.3180705 77.29725132 -53.4375 75.9375 C-55.95753315 72.81265889 -55.25729613 69.92376598 -55 66 C-60.30014818 65.49522398 -62.81965318 66.79182686 -67 70 C-68.20561184 70.98267859 -68.20561184 70.98267859 -68.09765625 72.84765625 C-68.08605469 73.57855469 -68.07445313 74.30945313 -68.0625 75.0625 C-68.041875 76.361875 -68.02125 77.66125 -68 79 C-72.875 77.125 -72.875 77.125 -74 76 C-74.01953125 73.8203125 -74.01953125 73.8203125 -73.8125 71.125 C-73.75707031 70.24070312 -73.70164062 69.35640625 -73.64453125 68.4453125 C-73 66 -73 66 -71.07421875 64.1796875 C-69 63 -69 63 -67 63 C-67.33 60.36 -67.66 57.72 -68 55 C-82.83576207 54.03488677 -82.83576207 54.03488677 -96 60 C-96.66 60 -97.32 60 -98 60 C-97.05239169 56.58861007 -96.18303342 55.14642674 -93.3828125 52.90625 C-89.60244536 50.77597383 -86.79535639 50.22144155 -82.5 49.75 C-81.2315625 49.60046875 -79.963125 49.4509375 -78.65625 49.296875 C-75 49 -75 49 -71.875 49.21484375 C-67.96267762 48.9224827 -66.41559054 47.38039799 -63.5 44.8125 C-62.54738281 43.98234375 -61.59476563 43.1521875 -60.61328125 42.296875 C-59.75089844 41.53890625 -58.88851562 40.7809375 -58 40 C-56.89907692 39.18311038 -55.79568249 38.36951416 -54.6875 37.5625 C-47.78137714 30.97759215 -45.66821692 24.43723491 -44.6328125 15.140625 C-43.65132203 10.26952415 -41.11281714 6.78823972 -38 3 C-37.23171875 3.33902344 -36.4634375 3.67804687 -35.671875 4.02734375 C-32.59978411 5.14569263 -31.10770237 4.77692559 -28 4 C-27.505 4.495 -27.505 4.495 -27 5 C-26.67 4.34 -26.34 3.68 -26 3 C-24.14453125 2.65625 -24.14453125 2.65625 -21.8125 2.5 C-18.94100951 2.25206911 -16.85337454 1.94581233 -14.125 0.9375 C-9.45046297 -0.46486111 -4.84527586 -0.15518677 0 0 Z M-32 28 C-31 30 -31 30 -31 30 Z " fill="#D1A14F" transform="translate(100,48)"/>
<path d="M0 0 C1.670625 0.061875 1.670625 0.061875 3.375 0.125 C3.045 1.775 2.715 3.425 2.375 5.125 C1.715 5.125 1.055 5.125 0.375 5.125 C0.375 5.785 0.375 6.445 0.375 7.125 C3.345 7.125 6.315 7.125 9.375 7.125 C9.375 10.425 9.375 13.725 9.375 17.125 C9.705 17.125 10.035 17.125 10.375 17.125 C10.705 13.495 11.035 9.865 11.375 6.125 C13.7010857 5.74436779 16.03555264 5.41230055 18.375 5.125 C19.375 6.125 19.375 6.125 19.5078125 7.9453125 C19.49142698 12.77904071 19.1862792 17.35873473 18.375 22.125 C15.405 22.455 12.435 22.785 9.375 23.125 C8.715 25.105 8.055 27.085 7.375 29.125 C8.179375 29.5375 8.98375 29.95 9.8125 30.375 C12.375 32.125 12.375 32.125 13.0625 34.25 C13.165625 34.86875 13.26875 35.4875 13.375 36.125 C14.035 36.455 14.695 36.785 15.375 37.125 C10.27875941 39.46524732 5.33402599 41.05760762 -0.125 42.3125 C-0.84558594 42.48974609 -1.56617188 42.66699219 -2.30859375 42.84960938 C-6.84846647 43.91274412 -10.93940067 44.19751523 -15.625 44.125 C-16.79095703 44.37056641 -16.79095703 44.37056641 -17.98046875 44.62109375 C-21.95830053 45.37905579 -25.89889361 45.22893795 -29.9375 45.1875 C-31.19143555 45.18073242 -31.19143555 45.18073242 -32.47070312 45.17382812 C-34.52216649 45.16210548 -36.57359273 45.14417203 -38.625 45.125 C-38.625 44.465 -38.625 43.805 -38.625 43.125 C-40.275 43.785 -41.925 44.445 -43.625 45.125 C-43.625 44.465 -43.625 43.805 -43.625 43.125 C-44.32625 43.33125 -45.0275 43.5375 -45.75 43.75 C-48.625 44.125 -48.625 44.125 -51.3125 43.1875 C-54.55997438 42.14585727 -56.3547452 42.12459988 -59.6875 42.3125 C-63.59233835 42.39495511 -64.39011912 42.28941662 -67.75 39.9375 C-69.625 37.125 -69.625 37.125 -70.125 34.5 C-69.625 32.125 -69.625 32.125 -68.1875 30.75 C-65.77243461 28.23833199 -65.94235658 25.48897973 -65.625 22.125 C-64.965 22.125 -64.305 22.125 -63.625 22.125 C-63.625 21.465 -63.625 20.805 -63.625 20.125 C-62.305 20.125 -60.985 20.125 -59.625 20.125 C-59.295 21.115 -58.965 22.105 -58.625 23.125 C-55.30703981 24.23098673 -52.47891476 24.43151213 -48.98828125 24.66015625 C-47.68955078 24.74716797 -46.39082031 24.83417969 -45.05273438 24.92382812 C-43.68099506 25.01180424 -42.3092502 25.09969376 -40.9375 25.1875 C-39.55401244 25.27893414 -38.17054852 25.37072683 -36.78710938 25.46289062 C-33.399956 25.68712726 -30.01260301 25.90767968 -26.625 26.125 C-26.625 25.135 -26.625 24.145 -26.625 23.125 C-24.975 23.125 -23.325 23.125 -21.625 23.125 C-21.625 24.115 -21.625 25.105 -21.625 26.125 C-12.715 25.135 -12.715 25.135 -3.625 24.125 C-3.625 23.465 -3.625 22.805 -3.625 22.125 C-5.11 21.63 -5.11 21.63 -6.625 21.125 C-5.305 20.465 -3.985 19.805 -2.625 19.125 C-4.11 18.63 -4.11 18.63 -5.625 18.125 C-7.02593069 7.21929341 -7.02593069 7.21929341 -5.625 2.125 C-3.625 0.125 -3.625 0.125 0 0 Z " fill="#9A8555" transform="translate(140.625,83.875)"/>
<path d="M0 0 C0.763125 0.350625 1.52625 0.70125 2.3125 1.0625 C5.04759379 2.32360884 5.04759379 2.32360884 8 1 C8.70005949 3.07914664 9.38462244 5.16351586 10.0625 7.25 C10.44535156 8.41015625 10.82820313 9.5703125 11.22265625 10.765625 C11.95098688 13.796066 12.26465339 15.20063703 11 18 C10.319375 18.433125 9.63875 18.86625 8.9375 19.3125 C8.298125 19.869375 7.65875 20.42625 7 21 C6.66619186 24.62563814 6.66619186 24.62563814 7 28 C11.29 28.66 15.58 29.32 20 30 C20.495 31.98 20.495 31.98 21 34 C20.32453125 33.97679687 19.6490625 33.95359375 18.953125 33.9296875 C17.61507812 33.90261719 17.61507812 33.90261719 16.25 33.875 C14.92742187 33.84019531 14.92742187 33.84019531 13.578125 33.8046875 C10.8864142 34.00860498 9.30095026 34.63448279 7 36 C7.845625 36.886875 8.69125 37.77375 9.5625 38.6875 C12.02603251 41.6008348 12.02603251 41.6008348 11.8125 44.875 C11.544375 45.57625 11.27625 46.2775 11 47 C7.26360784 45.75453595 6.81243487 44.36595047 5 41 C0.83975528 41 -2.01409361 42.26992576 -5.25 44.75 C-11.67299613 51.36911815 -10.72664366 62.30915367 -11 71 C-9.35 71.33 -7.7 71.66 -6 72 C-6 72.99 -6 73.98 -6 75 C-9.37335275 74.67563916 -12.3180705 74.29725132 -15.4375 72.9375 C-17.95753315 69.81265889 -17.25729613 66.92376598 -17 63 C-22.30014818 62.49522398 -24.81965318 63.79182686 -29 67 C-30.20561184 67.98267859 -30.20561184 67.98267859 -30.09765625 69.84765625 C-30.08605469 70.57855469 -30.07445313 71.30945313 -30.0625 72.0625 C-30.041875 73.361875 -30.02125 74.66125 -30 76 C-34.875 74.125 -34.875 74.125 -36 73 C-36.01953125 70.8203125 -36.01953125 70.8203125 -35.8125 68.125 C-35.75707031 67.24070312 -35.70164062 66.35640625 -35.64453125 65.4453125 C-35 63 -35 63 -33.07421875 61.1796875 C-31 60 -31 60 -29 60 C-29.33 57.36 -29.66 54.72 -30 52 C-44.83576207 51.03488677 -44.83576207 51.03488677 -58 57 C-58.66 57 -59.32 57 -60 57 C-59.05239169 53.58861007 -58.18303342 52.14642674 -55.3828125 49.90625 C-51.60244536 47.77597383 -48.79535639 47.22144155 -44.5 46.75 C-43.2315625 46.60046875 -41.963125 46.4509375 -40.65625 46.296875 C-37 46 -37 46 -33.875 46.21484375 C-29.96267762 45.9224827 -28.41559054 44.38039799 -25.5 41.8125 C-24.54738281 40.98234375 -23.59476563 40.1521875 -22.61328125 39.296875 C-21.75089844 38.53890625 -20.88851562 37.7809375 -20 37 C-18.89907692 36.18311038 -17.79568249 35.36951416 -16.6875 34.5625 C-9.78137714 27.97759215 -7.66821692 21.43723491 -6.6328125 12.140625 C-5.65132203 7.26952415 -3.11281714 3.78823972 0 0 Z " fill="#070606" transform="translate(62,51)"/>
<path d="M0 0 C2.3908062 3.5862093 2.35056084 5.60916083 2.5625 9.875 C2.77812556 14.02029135 3.06848332 17.95059691 4 22 C5.98 22 7.96 22 10 22 C10 20.68 10 19.36 10 18 C15.625 16.875 15.625 16.875 19 18 C19 13.05 19 8.1 19 3 C20.58390039 6.16780077 21.38835271 8.21442394 22.0625 11.5625 C22.58847257 14.14020029 23.16502551 16.49507652 24 19 C24.66 19 25.32 19 26 19 C26 20.32 26 21.64 26 23 C24 24.75 24 24.75 22 26 C22.50603992 28.16874252 22.99983813 29.99967627 24 32 C23.91161539 34.37783105 23.75653579 36.75345146 23.5625 39.125 C23.46066406 40.40632813 23.35882813 41.68765625 23.25390625 43.0078125 C23.17011719 43.99523437 23.08632812 44.98265625 23 46 C22.67 46 22.34 46 22 46 C22 41.38 22 36.76 22 32 C21.01 32 20.02 32 19 32 C19 36.95 19 41.9 19 47 C16 44 16 44 15.92578125 41.30078125 C16.05339844 40.31464844 16.18101562 39.32851562 16.3125 38.3125 C16.43238281 37.31863281 16.55226562 36.32476562 16.67578125 35.30078125 C16.78277344 34.54152344 16.88976562 33.78226563 17 33 C14.03 33 11.06 33 8 33 C8 32.34 8 31.68 8 31 C8.66 31 9.32 31 10 31 C10 29.68 10 28.36 10 27 C7.08365871 26.7497843 7.08365871 26.7497843 4 27 C1.83422793 30.2486581 1.75044534 31.18601347 1.8125 34.9375 C1.81894531 35.79214844 1.82539063 36.64679688 1.83203125 37.52734375 C1.98921788 39.84127718 2.2316855 41.81250585 3 44 C3.66 44.33 4.32 44.66 5 45 C4.67 45.66 4.34 46.32 4 47 C4 47.99 4 48.98 4 50 C-2.14778871 51.6277833 -7.64012196 52.20190089 -14 52 C-14 51.01 -14 50.02 -14 49 C-15.65 49 -17.3 49 -19 49 C-18.67 48.34 -18.34 47.68 -18 47 C-16.35 47 -14.7 47 -13 47 C-13 44.69 -13 42.38 -13 40 C-12.67 40 -12.34 40 -12 40 C-11.67 36.37 -11.34 32.74 -11 29 C-14.96 29 -18.92 29 -23 29 C-22.34 28.34 -21.68 27.68 -21 27 C-19.63035674 18.45911136 -19.87294737 9.62546201 -20 1 C-18.02 1 -16.04 1 -14 1 C-14.33 4.63 -14.66 8.26 -15 12 C-13.35 12 -11.7 12 -10 12 C-10 10.35 -10 8.7 -10 7 C-9.34 8.32 -8.68 9.64 -8 11 C-7.34 10.34 -6.68 9.68 -6 9 C-6.16417032 5.43407381 -6.16417032 5.43407381 -7 2 C-7.66 1.67 -8.32 1.34 -9 1 C-7.700625 1.020625 -6.40125 1.04125 -5.0625 1.0625 C-3.70834367 1.08399454 -2.35243917 1.07148199 -1 1 C-0.67 0.67 -0.34 0.34 0 0 Z " fill="#BF9141" transform="translate(133,58)"/>
<path d="M0 0 C1.65 0 3.3 0 5 0 C5 1.32 5 2.64 5 4 C6.19496094 4.04898438 7.38992187 4.09796875 8.62109375 4.1484375 C24.30130573 4.86147381 24.30130573 4.86147381 32 7 C32 7.66 32 8.32 32 9 C23.97885214 8.15566865 15.99138419 7.08446979 8 6 C8 8.31 8 10.62 8 13 C8.78238037 13.08040527 9.56476074 13.16081055 10.37084961 13.24365234 C13.89414676 13.61115942 17.41575897 13.99288099 20.9375 14.375 C22.16919922 14.50132813 23.40089844 14.62765625 24.66992188 14.7578125 C26.4246582 14.95117188 26.4246582 14.95117188 28.21484375 15.1484375 C29.84087524 15.32125244 29.84087524 15.32125244 31.49975586 15.49755859 C32.32483643 15.66336426 33.14991699 15.82916992 34 16 C34.495 16.99 34.495 16.99 35 18 C32.36 18 29.72 18 27 18 C27.10828125 18.804375 27.10828125 18.804375 27.21875 19.625 C28.18138269 27.75389824 28.09123205 35.82966291 28 44 C27.67 44 27.34 44 27 44 C26.01 35.42 25.02 26.84 24 18 C16.575 17.01 16.575 17.01 9 16 C9 19.3 9 22.6 9 26 C8.67 26 8.34 26 8 26 C7.67 22.7 7.34 19.4 7 16 C0.73 15.67 -5.54 15.34 -12 15 C-12.33 18.63 -12.66 22.26 -13 26 C-9.04 24.515 -9.04 24.515 -5 23 C-5.33 24.98 -5.66 26.96 -6 29 C-8.31 28.67 -10.62 28.34 -13 28 C-13 31.3 -13 34.6 -13 38 C-11.02 37.34 -9.04 36.68 -7 36 C-7.33 37.65 -7.66 39.3 -8 41 C-9.65 40.67 -11.3 40.34 -13 40 C-12.67 50.89 -12.34 61.78 -12 73 C-12.66 73 -13.32 73 -14 73 C-14.9097804 65.60072623 -15.12410745 58.32476219 -15.0625 50.875 C-15.05798828 49.823125 -15.05347656 48.77125 -15.04882812 47.6875 C-15.03718011 45.12493779 -15.02082553 42.56250123 -15 40 C-16.98 40.495 -16.98 40.495 -19 41 C-19 47.27 -19 53.54 -19 60 C-18.34 60.33 -17.68 60.66 -17 61 C-17.33 61.66 -17.66 62.32 -18 63 C-20.64 62.67 -23.28 62.34 -26 62 C-25.01 61.505 -25.01 61.505 -24 61 C-24.09343603 56.33655441 -24.19950614 51.67363414 -24.31738281 47.01074219 C-24.35570585 45.42390862 -24.39055288 43.83698719 -24.421875 42.25 C-24.46745431 39.97103434 -24.52545838 37.69267532 -24.5859375 35.4140625 C-24.60326431 34.34679428 -24.60326431 34.34679428 -24.62094116 33.25796509 C-24.63408239 29.17896343 -24.63408239 29.17896343 -27 26 C-22.71 26 -18.42 26 -14 26 C-14 22.7 -14 19.4 -14 16 C-16.46104938 16.25448807 -18.91743305 16.52772719 -21.375 16.8125 C-22.07367188 16.88275391 -22.77234375 16.95300781 -23.4921875 17.02539062 C-25.34332338 17.24788292 -27.17538205 17.61662522 -29 18 C-29.66 18.99 -30.32 19.98 -31 21 C-31 20.01 -31 19.02 -31 18 C-33.97 18.33 -36.94 18.66 -40 19 C-40.33 20.65 -40.66 22.3 -41 24 C-41.33 24 -41.66 24 -42 24 C-42.22507213 18.59826897 -41.9034034 14.10458183 -40 9 C-36.875 7.5 -36.875 7.5 -34 7 C-34 6.01 -34 5.02 -34 4 C-33.01 4 -32.02 4 -31 4 C-31 4.66 -31 5.32 -31 6 C-29.75347656 5.67257813 -28.50695312 5.34515625 -27.22265625 5.0078125 C-21.60379913 3.75917758 -16.16906296 3.77637615 -10.4375 3.875 C-9.42880859 3.88402344 -8.42011719 3.89304688 -7.38085938 3.90234375 C-4.92031543 3.92566644 -2.46029104 3.95839237 0 4 C0 2.68 0 1.36 0 0 Z " fill="#704B20" transform="translate(114,32)"/>
<path d="M0 0 C0 3.3 0 6.6 0 10 C-3.63 10.33 -7.26 10.66 -11 11 C-10.67 11.33 -10.34 11.66 -10 12 C-9.90091904 13.35909165 -9.8692029 14.72324051 -9.8671875 16.0859375 C-9.86428711 17.35195801 -9.86428711 17.35195801 -9.86132812 18.64355469 C-9.86583984 19.54493164 -9.87035156 20.44630859 -9.875 21.375 C-9.87693359 22.2815332 -9.87886719 23.18806641 -9.88085938 24.12207031 C-9.92164477 30.45513516 -10.19246174 36.71273785 -11 43 C-12.9375 43.5625 -12.9375 43.5625 -15 44 C-15.495 43.505 -15.495 43.505 -16 43 C-15.67 46.96 -15.34 50.92 -15 55 C-15.66 55 -16.32 55 -17 55 C-17.33848652 53.10507994 -17.67056911 51.20901534 -18 49.3125 C-18.2784375 47.72888672 -18.2784375 47.72888672 -18.5625 46.11328125 C-18.95068074 43.35095938 -19.08259976 40.78257957 -19 38 C-20.65 38 -22.3 38 -24 38 C-23.34 40.31 -22.68 42.62 -22 45 C-21.01 44.505 -21.01 44.505 -20 44 C-19.67 46.64 -19.34 49.28 -19 52 C-21.64 52.33 -24.28 52.66 -27 53 C-28.11544282 49.65367153 -27.67217232 48.36086161 -27 45 C-27.495 43.515 -27.495 43.515 -28 42 C-28.99 41.67 -29.98 41.34 -31 41 C-31 39.68 -31 38.36 -31 37 C-28.00519083 36.1276588 -25.36424089 35.89170234 -22.25 35.9375 C-21.45078125 35.94652344 -20.6515625 35.95554688 -19.828125 35.96484375 C-19.22484375 35.97644531 -18.6215625 35.98804688 -18 36 C-18 35.01 -18 34.02 -18 33 C-22.29 32.67 -26.58 32.34 -31 32 C-31.96539127 28.13843493 -32.21891421 26.65674263 -31 23 C-28.94921875 21.34765625 -28.94921875 21.34765625 -27 20 C-27.30871122 18.20767663 -27.62209064 16.41615679 -27.9375 14.625 C-28.11152344 13.62726562 -28.28554687 12.62953125 -28.46484375 11.6015625 C-28.87712062 9.03090344 -28.87712062 9.03090344 -30 7 C-29.34 6.01 -28.68 5.02 -28 4 C-27.67 4.33 -27.34 4.66 -27 5 C-26.67 4.34 -26.34 3.68 -26 3 C-24.14453125 2.65625 -24.14453125 2.65625 -21.8125 2.5 C-18.94100951 2.25206911 -16.85337454 1.94581233 -14.125 0.9375 C-9.45046297 -0.46486111 -4.84527586 -0.15518677 0 0 Z " fill="#DFAD56" transform="translate(100,48)"/>
<path d="M0 0 C1.32114304 0.0001133 1.32114304 0.0001133 2.66897583 0.00022888 C3.62109955 0.00539017 4.57322327 0.01055145 5.55419922 0.01586914 C7.01489334 0.01799156 7.01489334 0.01799156 8.50509644 0.02015686 C11.62305745 0.02576566 14.74094732 0.03831966 17.85888672 0.05102539 C19.96956277 0.05603926 22.08023994 0.06060236 24.19091797 0.06469727 C29.37193193 0.07573794 34.55290424 0.09248466 39.73388672 0.11352539 C39.73388672 0.77352539 39.73388672 1.43352539 39.73388672 2.11352539 C40.36037109 2.21149414 40.98685547 2.30946289 41.63232422 2.41040039 C42.44958984 2.55993164 43.26685547 2.70946289 44.10888672 2.86352539 C44.92099609 3.00274414 45.73310547 3.14196289 46.56982422 3.28540039 C48.73388672 4.11352539 48.73388672 4.11352539 49.92138672 5.91430664 C50.32357422 7.00291992 50.32357422 7.00291992 50.73388672 8.11352539 C51.01490234 8.83411133 51.29591797 9.55469727 51.58544922 10.29711914 C51.84068359 11.0409082 52.09591797 11.78469727 52.35888672 12.55102539 C52.74947266 13.6628418 52.74947266 13.6628418 53.14794922 14.79711914 C53.73388672 17.11352539 53.73388672 17.11352539 53.73388672 22.11352539 C44.82388672 21.12352539 35.91388672 20.13352539 26.73388672 19.11352539 C25.80850502 15.41199861 25.6521451 14.47894377 26.73388672 11.11352539 C32.46526916 10.95862316 37.62737878 11.46107654 43.23388672 12.61352539 C44.32443359 12.8281543 44.32443359 12.8281543 45.43701172 13.04711914 C47.20397743 13.39586237 48.96913981 13.75372262 50.73388672 14.11352539 C50.73388672 13.45352539 50.73388672 12.79352539 50.73388672 12.11352539 C48.60253906 11.87670898 46.47119141 11.63989258 44.33984375 11.40307617 C43.47987793 11.30752441 42.61991211 11.21197266 41.73388672 11.11352539 C40.93192871 11.02441895 40.1299707 10.9353125 39.30371094 10.84350586 C36.92626953 10.5793457 34.54882813 10.31518555 32.17138672 10.05102539 C31.35347656 9.96014648 30.53556641 9.86926758 29.69287109 9.77563477 C27.70654297 9.55493164 25.72021484 9.33422852 23.73388672 9.11352539 C23.73388672 7.79352539 23.73388672 6.47352539 23.73388672 5.11352539 C22.08388672 5.11352539 20.43388672 5.11352539 18.73388672 5.11352539 C18.73388672 6.43352539 18.73388672 7.75352539 18.73388672 9.11352539 C18.11457275 9.13858154 17.49525879 9.1636377 16.85717773 9.18945312 C14.00343784 9.30675197 11.14992231 9.42886125 8.29638672 9.55102539 C6.83555664 9.61 6.83555664 9.61 5.34521484 9.67016602 C-0.56672927 9.92720706 -6.39257325 10.3907216 -12.26611328 11.11352539 C-12.26611328 10.45352539 -12.26611328 9.79352539 -12.26611328 9.11352539 C-13.25611328 9.11352539 -14.24611328 9.11352539 -15.26611328 9.11352539 C-15.26611328 10.10352539 -15.26611328 11.09352539 -15.26611328 12.11352539 C-16.58611328 12.44352539 -17.90611328 12.77352539 -19.26611328 13.11352539 C-19.00109132 9.31487732 -18.46214178 7.37297487 -16.14111328 4.30102539 C-12.74701503 1.71855933 -10.46449279 1.43038422 -6.26611328 1.11352539 C-3.93601349 -0.05152451 -2.59364251 -0.00741041 0 0 Z " fill="#8B7343" transform="translate(95.26611328125,26.886474609375)"/>
<path d="M0 0 C1.32 0 2.64 0 4 0 C4.33 10.89 4.66 21.78 5 33 C5.66 33 6.32 33 7 33 C7.33 32.01 7.66 31.02 8 30 C8 30.99 8 31.98 8 33 C11.63 33 15.26 33 19 33 C19 34.65 19 36.3 19 38 C-8.26133768 38.29070147 -8.26133768 38.29070147 -14 35 C-14 34.01 -14 33.02 -14 32 C-15.32 32 -16.64 32 -18 32 C-18 32.66 -18 33.32 -18 34 C-18.66 34 -19.32 34 -20 34 C-20.33 34.66 -20.66 35.32 -21 36 C-21.28875 35.21625 -21.5775 34.4325 -21.875 33.625 C-22.84912254 30.90328368 -22.84912254 30.90328368 -25 29 C-24.01 27.515 -24.01 27.515 -23 26 C-22.34 26.66 -21.68 27.32 -21 28 C-17.90073181 27.67801034 -17.90073181 27.67801034 -15 27 C-15 26.01 -15 25.02 -15 24 C-15.66 24.33 -16.32 24.66 -17 25 C-17.99 21.04 -18.98 17.08 -20 13 C-17.03 13.495 -17.03 13.495 -14 14 C-13.66151348 15.89492006 -13.32943089 17.79098466 -13 19.6875 C-12.814375 20.74324219 -12.62875 21.79898438 -12.4375 22.88671875 C-12.04931926 25.64904062 -11.91740024 28.21742043 -12 31 C-11.34 31 -10.68 31 -10 31 C-10.15597656 30.39671875 -10.31195313 29.7934375 -10.47265625 29.171875 C-10.66730469 28.37265625 -10.86195312 27.5734375 -11.0625 26.75 C-11.25972656 25.96109375 -11.45695312 25.1721875 -11.66015625 24.359375 C-12.01497267 21.89605178 -11.76877544 20.34395868 -11 18 C-9.68 18.33 -8.36 18.66 -7 19 C-6.67 15.37 -6.34 11.74 -6 8 C-5.67 8 -5.34 8 -5 8 C-5 12.29 -5 16.58 -5 21 C-3.02 21.33 -1.04 21.66 1 22 C0.67 21.67 0.34 21.34 0 21 C-1.55606751 19.44393249 -1.12970769 17.94042629 -1.1328125 15.78125 C-1.13410156 14.93175781 -1.13539062 14.08226563 -1.13671875 13.20703125 C-1.13285156 12.31371094 -1.12898438 11.42039062 -1.125 10.5 C-1.13080078 9.16001953 -1.13080078 9.16001953 -1.13671875 7.79296875 C-1.13542969 6.94347656 -1.13414063 6.09398438 -1.1328125 5.21875 C-1.13168457 4.43435547 -1.13055664 3.64996094 -1.12939453 2.84179688 C-1 1 -1 1 0 0 Z " fill="#D4A554" transform="translate(95,72)"/>
<path d="M0 0 C0.99 0.66 1.98 1.32 3 2 C3.1875 5.625 3.1875 5.625 3 9 C3.66 9.33 4.32 9.66 5 10 C5 12.97 5 15.94 5 19 C4.67 19 4.34 19 4 19 C3.67 22.63 3.34 26.26 3 30 C1.02 29.67 -0.96 29.34 -3 29 C-3.33 29.66 -3.66 30.32 -4 31 C-4.66 30.67 -5.32 30.34 -6 30 C-6 31.32 -6 32.64 -6 34 C-7.98 34 -9.96 34 -12 34 C-12.33 34.99 -12.66 35.98 -13 37 C-13.33865898 33.47965794 -13.66996095 29.95865982 -14 26.4375 C-14.09539062 25.44685547 -14.19078125 24.45621094 -14.2890625 23.43554688 C-15.29663957 12.60409335 -15.29663957 12.60409335 -15 8 C-14.34 7.34 -13.68 6.68 -13 6 C-11.0625 7.3125 -11.0625 7.3125 -9 10 C-8.33580626 13.69291718 -8.17920569 17.23668045 -8 21 C-8.33 15.06 -8.66 9.12 -9 3 C-6.03 3.33 -3.06 3.66 0 4 C0 2.68 0 1.36 0 0 Z " fill="#D7A753" transform="translate(149,46)"/>
<path d="M0 0 C1.98 0 3.96 0 6 0 C5.67 3.63 5.34 7.26 5 11 C6.65 11 8.3 11 10 11 C10 9.35 10 7.7 10 6 C10.66 7.32 11.32 8.64 12 10 C12.66 9.34 13.32 8.68 14 8 C13.83582968 4.43407381 13.83582968 4.43407381 13 1 C12.34 0.67 11.68 0.34 11 0 C13.875 -0.1875 13.875 -0.1875 17 0 C19.15502531 3.23253796 19.46856135 4.25150923 19 8 C17.5 9.8125 17.5 9.8125 16 11 C16.86625 11.845625 17.7325 12.69125 18.625 13.5625 C20.0078125 15.2109375 20.0078125 15.2109375 21 17 C20.51146809 20.60292281 19.72079843 22.93596422 17.6875 25.9375 C15.39442916 27.38128534 13.65351355 27.21514975 11 27 C11.020625 28.27875 11.04125 29.5575 11.0625 30.875 C11.07058755 35.96207017 10.59020789 40.9516147 10 46 C9.67 46 9.34 46 9 46 C9 40.06 9 34.12 9 28 C5.04 28 1.08 28 -3 28 C-2.34 27.34 -1.68 26.68 -1 26 C0.36964326 17.45911136 0.12705263 8.62546201 0 0 Z " fill="#1B0F04" transform="translate(113,59)"/>
<path d="M0 0 C0.845625 0.144375 1.69125 0.28875 2.5625 0.4375 C13.35474792 2.20350421 24.08825238 3.36109952 35 4 C35 3.01 35 2.02 35 1 C36.32 1 37.64 1 39 1 C39 1.99 39 2.98 39 4 C41.97 4 44.94 4 48 4 C47.01 4.66 46.02 5.32 45 6 C46.98 6 48.96 6 51 6 C51.33 5.34 51.66 4.68 52 4 C51.34 3.67 50.68 3.34 50 3 C51.74816858 2.49363393 53.49862263 1.99515381 55.25 1.5 C56.22453125 1.2215625 57.1990625 0.943125 58.203125 0.65625 C61 0 61 0 65 0 C64.875 2.3125 64.875 2.3125 64 5 C55.75036455 10.30333708 46.71224317 10.37272074 37.25170898 10.37060547 C35.09860961 10.37492752 32.94765271 10.41116106 30.79492188 10.44921875 C23.31855798 10.51023282 16.33859659 9.93885197 9.05859375 8.1640625 C8.03802635 7.91829971 8.03802635 7.91829971 6.99684143 7.66757202 C3.29980739 6.67051301 2.19955107 6.2993266 0 3 C0 2.01 0 1.02 0 0 Z " fill="#553D23" transform="translate(79,116)"/>
<path d="M0 0 C-0.33 1.65 -0.66 3.3 -1 5 C-1.66 5 -2.32 5 -3 5 C-3 5.66 -3 6.32 -3 7 C-0.03 7 2.94 7 6 7 C6 10.3 6 13.6 6 17 C6.33 17 6.66 17 7 17 C7.33 13.37 7.66 9.74 8 6 C10.3260857 5.61936779 12.66055264 5.28730055 15 5 C16 6 16 6 16.1328125 7.8203125 C16.11642698 12.65404071 15.8112792 17.23373473 15 22 C14.37351563 22.04898438 13.74703125 22.09796875 13.1015625 22.1484375 C12.28429687 22.22320312 11.46703125 22.29796875 10.625 22.375 C9.40683594 22.47941406 9.40683594 22.47941406 8.1640625 22.5859375 C5.79665809 22.82892588 5.79665809 22.82892588 4 25 C4 23.02 4 21.04 4 19 C3.21625 19.495 2.4325 19.99 1.625 20.5 C-1 22 -1 22 -3 22 C-3 21.34 -3 20.68 -3 20 C-2.34 19.67 -1.68 19.34 -1 19 C-2.11375 18.773125 -3.2275 18.54625 -4.375 18.3125 C-8 17 -8 17 -9.4375 14.875 C-10.34595254 10.23179814 -10.84179362 5.98069087 -8.9375 1.5 C-6.03865362 -0.74426817 -3.54614524 -0.2676336 0 0 Z " fill="#9D8E6E" transform="translate(144,84)"/>
<path d="M0 0 C2 3 2 3 2.5078125 5.12109375 C3.27552069 8.00242892 4.10998086 9.6658739 6 12 C8.4683037 13.01068869 10.55603719 13.68398596 13.125 14.2578125 C13.83173859 14.42366348 14.53847717 14.58951447 15.26663208 14.76039124 C22.42219834 16.30705427 29.45885737 16.57556608 36.75683594 16.46655273 C38.89595505 16.43721258 41.03263382 16.44608859 43.171875 16.45898438 C51.65136913 16.44560197 60.24335339 16.29306304 67.4375 11.3125 C69.64460231 8.04598858 70.75347665 4.73957004 72 1 C72.495 2.485 72.495 2.485 73 4 C73.825 4.474375 74.65 4.94875 75.5 5.4375 C78 7 78 7 78.6875 9.125 C78.790625 9.74375 78.89375 10.3625 79 11 C79.99 11.495 79.99 11.495 81 12 C75.90375941 14.34024732 70.95902599 15.93260762 65.5 17.1875 C64.77941406 17.36474609 64.05882812 17.54199219 63.31640625 17.72460938 C58.77653353 18.78774412 54.68559933 19.07251523 50 19 C48.83404297 19.24556641 48.83404297 19.24556641 47.64453125 19.49609375 C43.66669947 20.25405579 39.72610639 20.10393795 35.6875 20.0625 C34.85154297 20.05798828 34.01558594 20.05347656 33.15429688 20.04882812 C31.10283351 20.03710548 29.05140727 20.01917203 27 20 C27 19.34 27 18.68 27 18 C25.35 18.66 23.7 19.32 22 20 C22 19.34 22 18.68 22 18 C21.29875 18.20625 20.5975 18.4125 19.875 18.625 C17 19 17 19 14.3125 18.0625 C11.06502562 17.02085727 9.2702548 16.99959988 5.9375 17.1875 C2.03266165 17.26995511 1.23488088 17.16441662 -2.125 14.8125 C-4 12 -4 12 -4.5 9.375 C-3.91295389 6.58653099 -3.05265176 5.88843962 -1 4 C-0.28552357 1.89667109 -0.28552357 1.89667109 0 0 Z " fill="#D1CFCF" transform="translate(75,109)"/>
<path d="M0 0 C1.50416548 3.00833096 0.60839737 5.34961578 0.0625 8.625 C-0.13214844 9.81351563 -0.32679688 11.00203125 -0.52734375 12.2265625 C-0.68332031 13.14179687 -0.83929688 14.05703125 -1 15 C0.32 15.33 1.64 15.66 3 16 C3.12375 16.639375 3.2475 17.27875 3.375 17.9375 C3.58125 18.618125 3.7875 19.29875 4 20 C4.66 20.33 5.32 20.66 6 21 C5.67 21.66 5.34 22.32 5 23 C5 23.99 5 24.98 5 26 C-1.14778871 27.6277833 -6.64012196 28.20190089 -13 28 C-13 27.01 -13 26.02 -13 25 C-14.65 25 -16.3 25 -18 25 C-17.67 24.34 -17.34 23.68 -17 23 C-15.35 23 -13.7 23 -12 23 C-12 20.69 -12 18.38 -12 16 C-11.34 16.66 -10.68 17.32 -10 18 C-9.34 13.38 -8.68 8.76 -8 4 C-4.535 3.505 -4.535 3.505 -1 3 C-0.67 2.01 -0.34 1.02 0 0 Z " fill="#B99556" transform="translate(132,82)"/>
<path d="M0 0 C1.24040039 0.01353516 1.24040039 0.01353516 2.50585938 0.02734375 C4.52486708 0.05068488 6.54372356 0.08654712 8.5625 0.125 C9.0575 1.115 9.0575 1.115 9.5625 2.125 C10.2225 2.125 10.8825 2.125 11.5625 2.125 C11.5625 3.775 11.5625 5.425 11.5625 7.125 C7.56293584 7.46370183 3.56278974 7.79498725 -0.4375 8.125 C-1.56285156 8.22039063 -2.68820313 8.31578125 -3.84765625 8.4140625 C-9.73400845 8.89598607 -15.5315881 9.24080219 -21.4375 9.125 C-21.4375 8.465 -21.4375 7.805 -21.4375 7.125 C-22.7575 7.125 -24.0775 7.125 -25.4375 7.125 C-25.7675 8.445 -26.0975 9.765 -26.4375 11.125 C-27.4275 11.125 -28.4175 11.125 -29.4375 11.125 C-29.5625 5.375 -29.5625 5.375 -28.4375 3.125 C-25.9609375 2.78125 -25.9609375 2.78125 -22.8125 2.625 C-19.33975103 2.45005043 -16.46233006 2.13268061 -13.12890625 1.1015625 C-8.64119703 -0.08566216 -4.61188424 -0.09662288 0 0 Z " fill="#BB9F70" transform="translate(102.4375,37.875)"/>
<path d="M0 0 C2.64 0.33 5.28 0.66 8 1 C8 1.99 8 2.98 8 4 C8.66 4 9.32 4 10 4 C10 3.34 10 2.68 10 2 C11.58323688 1.972807 13.16661062 1.95351694 14.75 1.9375 C16.07257813 1.92009766 16.07257813 1.92009766 17.421875 1.90234375 C19.7818838 1.99173802 21.74498524 2.33087179 24 3 C24 3.99 24 4.98 24 6 C24.66 6 25.32 6 26 6 C26 5.01 26 4.02 26 3 C29.3 3 32.6 3 36 3 C36 5.64 36 8.28 36 11 C24.51499909 11.34861723 12.89972286 10.96050999 2 7 C1.67 7.66 1.34 8.32 1 9 C-1.125 2.25 -1.125 2.25 0 0 Z " fill="#AE905A" transform="translate(77,109)"/>
<path d="M0 0 C4.455 0.99 4.455 0.99 9 2 C8.67 2.66 8.34 3.32 8 4 C7.34 4 6.68 4 6 4 C6 4.66 6 5.32 6 6 C6.598125 5.505 7.19625 5.01 7.8125 4.5 C10 3 10 3 13 3 C13 5.31 13 7.62 13 10 C12.34 10.33 11.68 10.66 11 11 C11 10.34 11 9.68 11 9 C9.824375 9.309375 8.64875 9.61875 7.4375 9.9375 C0.71803595 11.45584043 -6.14044366 11.6565703 -13 12 C-13.33 12.99 -13.66 13.98 -14 15 C-14 14.01 -14 13.02 -14 12 C-19.94 12 -25.88 12 -32 12 C-32 12.99 -32 13.98 -32 15 C-32.66 15 -33.32 15 -34 15 C-34 14.01 -34 13.02 -34 12 C-40.93 11.505 -40.93 11.505 -48 11 C-48 11.66 -48 12.32 -48 13 C-48.66 13 -49.32 13 -50 13 C-50 12.01 -50 11.02 -50 10 C-52.64 9.67 -55.28 9.34 -58 9 C-58.33 9.66 -58.66 10.32 -59 11 C-59.33 9.35 -59.66 7.7 -60 6 C-59.34 6 -58.68 6 -58 6 C-58 5.34 -58 4.68 -58 4 C-56.68 4 -55.36 4 -54 4 C-53.67 4.99 -53.34 5.98 -53 7 C-49.68203981 8.10598673 -46.85391476 8.30651213 -43.36328125 8.53515625 C-42.06455078 8.62216797 -40.76582031 8.70917969 -39.42773438 8.79882812 C-38.05599506 8.88680424 -36.6842502 8.97469376 -35.3125 9.0625 C-33.92901244 9.15393414 -32.54554852 9.24572683 -31.16210938 9.33789062 C-27.774956 9.56212726 -24.38760301 9.78267968 -21 10 C-21 9.01 -21 8.02 -21 7 C-19.35 7 -17.7 7 -16 7 C-16 7.99 -16 8.98 -16 10 C-7.09 9.01 -7.09 9.01 2 8 C2 7.34 2 6.68 2 6 C1.01 5.67 0.02 5.34 -1 5 C0.32 4.34 1.64 3.68 3 3 C2.01 2.67 1.02 2.34 0 2 C0 1.34 0 0.68 0 0 Z " fill="#6B4E28" transform="translate(135,100)"/>
<path d="M0 0 C2.64 0 5.28 0 8 0 C7.01 0.33 6.02 0.66 5 1 C5 3.97 5 6.94 5 10 C6.62490954 10.02698189 8.24994633 10.04638757 9.875 10.0625 C10.77992187 10.07410156 11.68484375 10.08570312 12.6171875 10.09765625 C15.0168585 10.16249257 15.0168585 10.16249257 17 9 C16.67 10.65 16.34 12.3 16 14 C13.525 13.505 13.525 13.505 11 13 C11.33 23.89 11.66 34.78 12 46 C11.34 46 10.68 46 10 46 C9.0902196 38.60072623 8.87589255 31.32476219 8.9375 23.875 C8.94201172 22.823125 8.94652344 21.77125 8.95117188 20.6875 C8.96281989 18.12493779 8.97917447 15.56250123 9 13 C7.68 13.33 6.36 13.66 5 14 C5 20.27 5 26.54 5 33 C5.66 33.33 6.32 33.66 7 34 C6.67 34.66 6.34 35.32 6 36 C2.04 35.505 2.04 35.505 -2 35 C-1.01 34.505 -1.01 34.505 0 34 C0 22.78 0 11.56 0 0 Z " fill="#1E1004" transform="translate(90,59)"/>
<path d="M0 0 C-0.14084796 1.79206547 -0.28783701 3.58364917 -0.4375 5.375 C-0.51871094 6.37273438 -0.59992188 7.37046875 -0.68359375 8.3984375 C-1 11 -1 11 -2 13 C-2.07194869 15.88370333 -2.09291708 18.74239664 -2.0625 21.625 C-2.05798828 22.42679688 -2.05347656 23.22859375 -2.04882812 24.0546875 C-2.03703168 26.03649006 -2.01909605 28.01825433 -2 30 C-2.66 30 -3.32 30 -4 30 C-4 25.71 -4 21.42 -4 17 C-4.66 17.66 -5.32 18.32 -6 19 C-5.68404492 20.67004829 -5.34820041 22.33637583 -5 24 C-5.4375 26.8125 -5.4375 26.8125 -6 29 C-7.98 29 -9.96 29 -12 29 C-12 27.35 -12 25.7 -12 24 C-12.66 24 -13.32 24 -14 24 C-14.33 24.66 -14.66 25.32 -15 26 C-14.50384615 21.41057692 -14.50384615 21.41057692 -11.953125 19.33203125 C-11.30859375 18.89246094 -10.6640625 18.45289062 -10 18 C-10.30871122 16.20767663 -10.62209064 14.41615679 -10.9375 12.625 C-11.11152344 11.62726562 -11.28554687 10.62953125 -11.46484375 9.6015625 C-11.87712062 7.03090344 -11.87712062 7.03090344 -13 5 C-12.34 4.01 -11.68 3.02 -11 2 C-10.67 2.33 -10.34 2.66 -10 3 C-9.67 2.34 -9.34 1.68 -9 1 C-5.8035914 -0.06546953 -3.34252724 -0.07427838 0 0 Z " fill="#C29853" transform="translate(83,50)"/>
<path d="M0 0 C3.60805876 3.60805876 3.56581212 5.94357337 3.75 10.75 C3.79253906 11.4409375 3.83507812 12.131875 3.87890625 12.84375 C4.1074279 17.34647286 3.84476132 21.54787955 3 26 C2.67 26.33 2.34 26.66 2 27 C4.31 27.33 6.62 27.66 9 28 C9 31.63 9 35.26 9 39 C8.34 37.68 7.68 36.36 7 35 C6.67 35.66 6.34 36.32 6 37 C3.4375 37.625 3.4375 37.625 1 38 C0.01 36.02 -0.98 34.04 -2 32 C-2.99 32.495 -2.99 32.495 -4 33 C-4.02706445 30.10410348 -4.04687029 27.20846205 -4.0625 24.3125 C-4.07087891 23.49587891 -4.07925781 22.67925781 -4.08789062 21.83789062 C-4.10442051 17.75500916 -4.03035098 13.98348293 -3 10 C-2.34 10.33 -1.68 10.66 -1 11 C-0.67 7.37 -0.34 3.74 0 0 Z " fill="#E1AE52" transform="translate(110,59)"/>
<path d="M0 0 C1.50433594 0.01353516 1.50433594 0.01353516 3.0390625 0.02734375 C3.80992188 0.03894531 4.58078125 0.05054687 5.375 0.0625 C5.375 0.3925 5.375 0.7225 5.375 1.0625 C3.395 1.0625 1.415 1.0625 -0.625 1.0625 C-0.625 2.0525 -0.625 3.0425 -0.625 4.0625 C3.005 4.0625 6.635 4.0625 10.375 4.0625 C10.375 5.3825 10.375 6.7025 10.375 8.0625 C2.38361581 9.14696979 -5.60385214 10.21816865 -13.625 11.0625 C-13.625 10.4025 -13.625 9.7425 -13.625 9.0625 C-14.615 9.0625 -15.605 9.0625 -16.625 9.0625 C-16.625 10.0525 -16.625 11.0425 -16.625 12.0625 C-17.945 12.3925 -19.265 12.7225 -20.625 13.0625 C-20.35997804 9.26385193 -19.82102849 7.32194948 -17.5 4.25 C-14.10590175 1.66753394 -11.82337951 1.37935883 -7.625 1.0625 C-4.98041621 -0.25979189 -2.94738699 -0.03427194 0 0 Z " fill="#D1BB95" transform="translate(96.625,26.9375)"/>
<path d="M0 0 C0.33 0 0.66 0 1 0 C1.66 2.64 2.32 5.28 3 8 C3.66 8 4.32 8 5 8 C5 9.32 5 10.64 5 12 C3 13.75 3 13.75 1 15 C1.50603992 17.16874252 1.99983813 18.99967627 3 21 C2.91161539 23.37783105 2.75653579 25.75345146 2.5625 28.125 C2.46066406 29.40632813 2.35882813 30.68765625 2.25390625 32.0078125 C2.17011719 32.99523437 2.08632812 33.98265625 2 35 C1.67 35 1.34 35 1 35 C1 30.38 1 25.76 1 21 C0.01 21 -0.98 21 -2 21 C-2 25.95 -2 30.9 -2 36 C-5 33 -5 33 -5.07421875 30.30078125 C-4.94660156 29.31464844 -4.81898438 28.32851562 -4.6875 27.3125 C-4.56761719 26.31863281 -4.44773438 25.32476562 -4.32421875 24.30078125 C-4.21722656 23.54152344 -4.11023438 22.78226563 -4 22 C-6.97 22 -9.94 22 -13 22 C-13 21.34 -13 20.68 -13 20 C-12.34 20 -11.68 20 -11 20 C-10.855625 19.195625 -10.71125 18.39125 -10.5625 17.5625 C-10 15 -10 15 -9 14 C-9.66 13.34 -10.32 12.68 -11 12 C-7.56484998 11.37542727 -4.50935186 11 -1 11 C-0.67 7.37 -0.34 3.74 0 0 Z " fill="#97805C" transform="translate(154,69)"/>
<path d="M0 0 C1.98 0 3.96 0 6 0 C5.67 3.96 5.34 7.92 5 12 C6.32 12.33 7.64 12.66 9 13 C8.01 13.33 7.02 13.66 6 14 C6 17.63 6 21.26 6 25 C7.98 25.33 9.96 25.66 12 26 C11.34 32.6 10.68 39.2 10 46 C9.67 46 9.34 46 9 46 C9 40.06 9 34.12 9 28 C5.04 28 1.08 28 -3 28 C-2.34 27.34 -1.68 26.68 -1 26 C0.36964326 17.45911136 0.12705263 8.62546201 0 0 Z " fill="#180E04" transform="translate(113,59)"/>
<path d="M0 0 C0 8.58 0 17.16 0 26 C-0.33 26 -0.66 26 -1 26 C-1.33 22.04 -1.66 18.08 -2 14 C-2.33 20.93 -2.66 27.86 -3 35 C-3.495 33.515 -3.495 33.515 -4 32 C-4.92683594 31.95101562 -5.85367188 31.90203125 -6.80859375 31.8515625 C-8.60490234 31.73941406 -8.60490234 31.73941406 -10.4375 31.625 C-11.63246094 31.55539063 -12.82742187 31.48578125 -14.05859375 31.4140625 C-15.02925781 31.27742188 -15.99992187 31.14078125 -17 31 C-18.24546405 28.50907189 -17.7767578 27.58919267 -17 25 C-16.34 25 -15.68 25 -15 25 C-15 26.65 -15 28.3 -15 30 C-13.02 30 -11.04 30 -9 30 C-8.92300501 27.30517531 -9.00836056 24.96005512 -9.5625 22.3125 C-10 20 -10 20 -9 18 C-8.34 18 -7.68 18 -7 18 C-7 22.29 -7 26.58 -7 31 C-6.34 31 -5.68 31 -5 31 C-5.16242188 30.47664063 -5.32484375 29.95328125 -5.4921875 29.4140625 C-6.13416547 26.362198 -6.13203668 23.49224849 -6.125 20.375 C-6.12757812 19.22773437 -6.13015625 18.08046875 -6.1328125 16.8984375 C-6 14 -6 14 -5 12 C-4.76764056 9.73234399 -4.61898297 7.46638586 -4.4765625 5.19140625 C-3.97871388 2.90211873 -2.75871189 0 0 0 Z " fill="#A77934" transform="translate(86,49)"/>
<path d="M0 0 C2.97 0.495 2.97 0.495 6 1 C6.3396019 2.87387477 6.67138691 4.74916697 7 6.625 C7.185625 7.66914062 7.37125 8.71328125 7.5625 9.7890625 C7.98715797 12.90574865 8.07545206 15.85930812 8 19 C11.3 19.33 14.6 19.66 18 20 C17.67 20.99 17.34 21.98 17 23 C13.7 23 10.4 23 7 23 C6.67 21.68 6.34 20.36 6 19 C4.68 19 3.36 19 2 19 C2 19.66 2 20.32 2 21 C1.34 21 0.68 21 0 21 C-0.33 21.66 -0.66 22.32 -1 23 C-1.433125 21.824375 -1.433125 21.824375 -1.875 20.625 C-2.84912254 17.90328368 -2.84912254 17.90328368 -5 16 C-4.34 15.01 -3.68 14.02 -3 13 C-2.34 13.66 -1.68 14.32 -1 15 C2.09926819 14.67801034 2.09926819 14.67801034 5 14 C5 13.01 5 12.02 5 11 C4.01 11.495 4.01 11.495 3 12 C2.01 8.04 1.02 4.08 0 0 Z " fill="#C5B288" transform="translate(75,85)"/>
<path d="M0 0 C2.4375 1.3125 2.4375 1.3125 5 4 C5.84433827 7.65087113 5.93971869 11.26255853 6 15 C6.01546875 15.8971875 6.0309375 16.794375 6.046875 17.71875 C6.06012669 19.81251637 6.03432011 21.90647299 6 24 C6.66 24 7.32 24 8 24 C8 25.32 8 26.64 8 28 C6.02 28 4.04 28 2 28 C1.67 28.99 1.34 29.98 1 31 C0.66134102 27.47965794 0.33003905 23.95865982 0 20.4375 C-0.09539062 19.44685547 -0.19078125 18.45621094 -0.2890625 17.43554688 C-1.61121324 3.22242647 -1.61121324 3.22242647 0 0 Z " fill="#D3A34F" transform="translate(135,52)"/>
<path d="M0 0 C1.65 0 3.3 0 5 0 C5 1.32 5 2.64 5 4 C6.19496094 4.04898438 7.38992187 4.09796875 8.62109375 4.1484375 C24.30130573 4.86147381 24.30130573 4.86147381 32 7 C32 7.66 32 8.32 32 9 C23.97885214 8.15566865 15.99138419 7.08446979 8 6 C7.67 6.99 7.34 7.98 7 9 C7 7.68 7 6.36 7 5 C4.04019468 5.08670137 1.08353131 5.19353023 -1.875 5.3125 C-3.13763672 5.34633789 -3.13763672 5.34633789 -4.42578125 5.38085938 C-5.23144531 5.41630859 -6.03710938 5.45175781 -6.8671875 5.48828125 C-7.61081543 5.51446533 -8.35444336 5.54064941 -9.12060547 5.56762695 C-11.40733826 5.86729591 -11.40733826 5.86729591 -13 9 C-13 8.01 -13 7.02 -13 6 C-15.29295236 6.28138058 -17.58435456 6.5754186 -19.875 6.875 C-21.78925781 7.11863281 -21.78925781 7.11863281 -23.7421875 7.3671875 C-27.07164227 7.69877473 -27.07164227 7.69877473 -29 10 C-29 9.34 -29 8.68 -29 8 C-31.97 8.66 -34.94 9.32 -38 10 C-38 9.34 -38 8.68 -38 8 C-36.68 7.67 -35.36 7.34 -34 7 C-34 6.01 -34 5.02 -34 4 C-33.01 4 -32.02 4 -31 4 C-31 4.66 -31 5.32 -31 6 C-29.75347656 5.67257813 -28.50695312 5.34515625 -27.22265625 5.0078125 C-21.60379913 3.75917758 -16.16906296 3.77637615 -10.4375 3.875 C-9.42880859 3.88402344 -8.42011719 3.89304688 -7.38085938 3.90234375 C-4.92031543 3.92566644 -2.46029104 3.95839237 0 4 C0 2.68 0 1.36 0 0 Z " fill="#4F3115" transform="translate(114,32)"/>
<path d="M0 0 C5.86928404 -0.18059336 10.44542412 0.10908055 16 2 C15.67 4.31 15.34 6.62 15 9 C14.34 7.68 13.68 6.36 13 5 C12.01 6.98 11.02 8.96 10 11 C6.49064814 11 3.43515002 10.62457273 0 10 C0 6.7 0 3.4 0 0 Z " fill="#D5A54E" transform="translate(123,48)"/>
<path d="M0 0 C10.5 1.5 10.5 1.5 13 4 C14.68183948 4.23287008 16.3712416 4.41264166 18.0625 4.5625 C18.98160156 4.64628906 19.90070313 4.73007813 20.84765625 4.81640625 C21.91306641 4.90728516 21.91306641 4.90728516 23 5 C23 5.66 23 6.32 23 7 C21.68 7 20.36 7 19 7 C19 7.66 19 8.32 19 9 C36.325 8.505 36.325 8.505 54 8 C49.0939616 11.27069227 43.29764824 10.37186116 37.5534668 10.37060547 C35.36488056 10.37489728 33.17845234 10.41097274 30.99023438 10.44921875 C23.44468039 10.51005536 16.39048998 9.9573979 9.04296875 8.1640625 C8.36357742 8.00022064 7.6841861 7.83637878 6.98420715 7.66757202 C3.29195897 6.66978587 2.19714363 6.29571544 0 3 C0 2.01 0 1.02 0 0 Z " fill="#786956" transform="translate(79,116)"/>
<path d="M0 0 C0.41064453 1.76586914 0.41064453 1.76586914 0.6328125 4.03515625 C0.71660156 4.84404297 0.80039063 5.65292969 0.88671875 6.48632812 C0.96535156 7.33646484 1.04398438 8.18660156 1.125 9.0625 C1.21136719 9.91650391 1.29773438 10.77050781 1.38671875 11.65039062 C1.59947228 13.76610633 1.80079953 15.88296524 2 18 C1.34 18 0.68 18 0 18 C-0.33848652 16.10507994 -0.67056911 14.20901534 -1 12.3125 C-1.185625 11.25675781 -1.37125 10.20101562 -1.5625 9.11328125 C-1.95068074 6.35095938 -2.08259976 3.78257957 -2 1 C-3.65 1 -5.3 1 -7 1 C-6.34 3.31 -5.68 5.62 -5 8 C-4.34 7.67 -3.68 7.34 -3 7 C-2.67 9.64 -2.34 12.28 -2 15 C-5.96 15.495 -5.96 15.495 -10 16 C-11.11544282 12.65367153 -10.67217232 11.36086161 -10 8 C-10.33 7.01 -10.66 6.02 -11 5 C-11.99 4.67 -12.98 4.34 -14 4 C-14 2.68 -14 1.36 -14 0 C-9.75481738 -1.41506087 -4.03909918 -2.01954959 0 0 Z " fill="#A37939" transform="translate(83,85)"/>
<path d="M0 0 C0.99386719 0.00902344 1.98773438 0.01804688 3.01171875 0.02734375 C4.15060547 0.04474609 4.15060547 0.04474609 5.3125 0.0625 C5.3125 3.3625 5.3125 6.6625 5.3125 10.0625 C3.16673363 10.08935938 1.02087355 10.10883088 -1.125 10.125 C-2.31996094 10.13660156 -3.51492187 10.14820313 -4.74609375 10.16015625 C-7.6875 10.0625 -7.6875 10.0625 -8.6875 9.0625 C-8.82865161 6.39191149 -8.72997107 3.73817762 -8.6875 1.0625 C-5.53819107 0.01273036 -3.29935544 -0.03881595 0 0 Z " fill="#CB9B4D" transform="translate(94.6875,47.9375)"/>
<path d="M0 0 C1.32 0 2.64 0 4 0 C4 0.99 4 1.98 4 3 C4.66008057 3.0501123 5.32016113 3.10022461 6.00024414 3.15185547 C9.02162339 3.38547136 12.04201165 3.63014493 15.0625 3.875 C16.62000977 3.99294922 16.62000977 3.99294922 18.20898438 4.11328125 C23.72757618 4.56878407 28.74752082 5.22682263 34 7 C34 7.33 34 7.66 34 8 C31.36 8 28.72 8 26 8 C26.0721875 8.53625 26.144375 9.0725 26.21875 9.625 C27.18138269 17.75389824 27.09123205 25.82966291 27 34 C26.67 34 26.34 34 26 34 C25.01 25.42 24.02 16.84 23 8 C15.575 7.01 15.575 7.01 8 6 C8 9.3 8 12.6 8 16 C7.67 16 7.34 16 7 16 C6.67 12.7 6.34 9.4 6 6 C3.03 5.505 3.03 5.505 0 5 C0 3.35 0 1.7 0 0 Z " fill="#734B1C" transform="translate(115,42)"/>
<path d="M0 0 C0.73605469 0.00451172 1.47210938 0.00902344 2.23046875 0.01367188 C4.02868158 0.02534858 5.82685197 0.04327989 7.625 0.0625 C7.625 1.7125 7.625 3.3625 7.625 5.0625 C6.305 5.0625 4.985 5.0625 3.625 5.0625 C3.625 6.3825 3.625 7.7025 3.625 9.0625 C-0.335 9.0625 -4.295 9.0625 -8.375 9.0625 C-8.375 8.7325 -8.375 8.4025 -8.375 8.0625 C-6.725 8.0625 -5.075 8.0625 -3.375 8.0625 C-3.375 6.7425 -3.375 5.4225 -3.375 4.0625 C-7.005 4.0625 -10.635 4.0625 -14.375 4.0625 C-14.375 3.0725 -14.375 2.0825 -14.375 1.0625 C-9.51770355 0.08950844 -4.9249375 -0.05788805 0 0 Z " fill="#A2895F" transform="translate(110.375,26.9375)"/>
<path d="M0 0 C5.61 0 11.22 0 17 0 C17 0.66 17 1.32 17 2 C14.69 2 12.38 2 10 2 C10 2.66 10 3.32 10 4 C12.97 4.495 12.97 4.495 16 5 C15.67 6.32 15.34 7.64 15 9 C10.38 9 5.76 9 1 9 C0.67 6.03 0.34 3.06 0 0 Z " fill="#9C8A6E" transform="translate(118,27)"/>
<path d="M0 0 C5.94 0 11.88 0 18 0 C17.01 0.66 16.02 1.32 15 2 C15.99 3.485 15.99 3.485 17 5 C16.875 7.5625 16.875 7.5625 16 10 C12.83448842 12.37413369 11.20266549 12 7 12 C7 8.7 7 5.4 7 2 C5.35 1.67 3.7 1.34 2 1 C2.33 1.66 2.66 2.32 3 3 C3.06950541 4.54023996 3.08452357 6.08334988 3.0625 7.625 C3.05347656 8.44226563 3.04445313 9.25953125 3.03515625 10.1015625 C3.02355469 10.72804688 3.01195313 11.35453125 3 12 C2.67 12 2.34 12 2 12 C1.34 8.04 0.68 4.08 0 0 Z " fill="#735729" transform="translate(111,58)"/>
<path d="M0 0 C0.11138159 5.45769811 -0.08342019 10.61509359 -1 16 C-5.95 16.495 -5.95 16.495 -11 17 C-10.67 15.02 -10.34 13.04 -10 11 C-9.67 11 -9.34 11 -9 11 C-8.67 7.37 -8.34 3.74 -8 0 C-3 -1 -3 -1 0 0 Z " fill="#BCB5A9" transform="translate(160,90)"/>
<path d="M0 0 C0.33 0 0.66 0 1 0 C1 2.97 1 5.94 1 9 C3.64 8.01 6.28 7.02 9 6 C8.67 7.98 8.34 9.96 8 12 C5.69 11.67 3.38 11.34 1 11 C1 14.3 1 17.6 1 21 C-0.99954746 21.04254356 -3.00041636 21.04080783 -5 21 C-6 20 -6 20 -6.125 16.5625 C-6 13 -6 13 -5 11 C-5.94875 11.04125 -6.8975 11.0825 -7.875 11.125 C-11 11 -11 11 -13 9 C-8.71 9 -4.42 9 0 9 C0 6.03 0 3.06 0 0 Z " fill="#41260B" transform="translate(100,49)"/>
<path d="M0 0 C1.093125 0.0825 2.18625 0.165 3.3125 0.25 C2.9825 1.9 2.6525 3.55 2.3125 5.25 C1.6525 5.25 0.9925 5.25 0.3125 5.25 C0.14568891 8.16652174 0.14568891 8.16652174 0.3125 11.25 C0.9725 11.91 1.6325 12.57 2.3125 13.25 C2.3125 14.57 2.3125 15.89 2.3125 17.25 C-1.42237777 16.7520163 -3.49987635 16.37508244 -6.6875 14.25 C-7.0859375 12.0078125 -7.0859375 12.0078125 -7.0625 9.375 C-7.07023438 8.51132813 -7.07796875 7.64765625 -7.0859375 6.7578125 C-6.32232176 1.9515252 -4.85096703 0.32887912 0 0 Z " fill="#E4D4B1" transform="translate(140.6875,83.75)"/>
<path d="M0 0 C1.32 0 2.64 0 4 0 C4.08692074 4.27070558 4.14036515 8.54118458 4.1875 12.8125 C4.21263672 14.02744141 4.23777344 15.24238281 4.26367188 16.49414062 C4.27333984 17.65751953 4.28300781 18.82089844 4.29296875 20.01953125 C4.3086792 21.09307861 4.32438965 22.16662598 4.34057617 23.27270508 C4 26 4 26 2.48168945 27.8737793 C1.99273193 28.24543213 1.50377441 28.61708496 1 29 C-0.38308781 26.23382437 -0.11210196 23.98982 -0.09765625 20.8984375 C-0.09443359 19.68671875 -0.09121094 18.475 -0.08789062 17.2265625 C-0.07951172 15.95554687 -0.07113281 14.68453125 -0.0625 13.375 C-0.05798828 12.09625 -0.05347656 10.8175 -0.04882812 9.5 C-0.03701203 6.33328708 -0.02053815 3.16666644 0 0 Z " fill="#D2A254" transform="translate(101,72)"/>
<path d="M0 0 C0 0.99 0 1.98 0 3 C-2.22850277 3.33774332 -4.45783467 3.6700187 -6.6875 4 C-8.54955078 4.2784375 -8.54955078 4.2784375 -10.44921875 4.5625 C-13.35886371 4.92100411 -16.07700022 5.08942256 -19 5 C-19.33 6.32 -19.66 7.64 -20 9 C-20 8.34 -20 7.68 -20 7 C-21.32 7 -22.64 7 -24 7 C-24.33 8.32 -24.66 9.64 -25 11 C-25.99 11 -26.98 11 -28 11 C-28.125 5.25 -28.125 5.25 -27 3 C-24.5234375 2.65625 -24.5234375 2.65625 -21.375 2.5 C-13.97534395 2.01893489 -7.47056079 -0.26212494 0 0 Z " fill="#AA8C58" transform="translate(101,38)"/>
<path d="M0 0 C2.64 0.33 5.28 0.66 8 1 C8 1.99 8 2.98 8 4 C8.66 4 9.32 4 10 4 C10 3.34 10 2.68 10 2 C11.58323688 1.972807 13.16661062 1.95351694 14.75 1.9375 C16.07257813 1.92009766 16.07257813 1.92009766 17.421875 1.90234375 C19.7818838 1.99173802 21.74498524 2.33087179 24 3 C24 3.99 24 4.98 24 6 C18.54230189 6.11138159 13.38490641 5.91657981 8 5 C8 5.99 8 6.98 8 8 C5.03 7.505 5.03 7.505 2 7 C1.67 7.66 1.34 8.32 1 9 C-1.125 2.25 -1.125 2.25 0 0 Z " fill="#A38D64" transform="translate(77,109)"/>
<path d="M0 0 C10.55808656 -0.3690205 10.55808656 -0.3690205 15 2 C15.33 4.31 15.66 6.62 16 9 C12.98968256 9.93423645 12.13349732 10.04449911 9 9 C6.77425665 8.77548542 4.54418481 8.59217122 2.3125 8.4375 C1.13300781 8.35371094 -0.04648438 8.26992188 -1.26171875 8.18359375 C-2.16535156 8.12300781 -3.06898437 8.06242187 -4 8 C-4 7.67 -4 7.34 -4 7 C-1.03 7 1.94 7 5 7 C5.33 5.68 5.66 4.36 6 3 C3.03 2.505 3.03 2.505 0 2 C0 1.34 0 0.68 0 0 Z " fill="#97855F" transform="translate(128,29)"/>
<path d="M0 0 C2.021761 4.04352201 2.2470882 5.69089273 2.1875 10.0625 C2.18105469 11.10535156 2.17460937 12.14820312 2.16796875 13.22265625 C2 16 2 16 1 19 C-2.96 19.495 -2.96 19.495 -7 20 C-6.67 20.99 -6.34 21.98 -6 23 C-8.97 23 -11.94 23 -15 23 C-15 21.68 -15 20.36 -15 19 C-13.02 19 -11.04 19 -9 19 C-9 17.68 -9 16.36 -9 15 C-3.375 13.875 -3.375 13.875 0 15 C0 10.05 0 5.1 0 0 Z " fill="#916D35" transform="translate(152,61)"/>
<path d="M0 0 C5.9302285 -0.20102469 9.66531117 0.33265559 15 3 C14 6 14 6 12 8 C9.1796875 8.1953125 9.1796875 8.1953125 5.875 8.125 C4.77929688 8.10695313 3.68359375 8.08890625 2.5546875 8.0703125 C1.71164063 8.04710937 0.86859375 8.02390625 0 8 C-0.87840996 4.90279155 -0.99435406 3.09354597 0 0 Z " fill="#B39765" transform="translate(122,38)"/>
<path d="M0 0 C0.91007812 0.10183594 1.82015625 0.20367188 2.7578125 0.30859375 C3.45648438 0.39238281 4.15515625 0.47617187 4.875 0.5625 C4.545 1.8825 4.215 3.2025 3.875 4.5625 C0.905 5.2225 -2.065 5.8825 -5.125 6.5625 C-5.125 7.2225 -5.125 7.8825 -5.125 8.5625 C-3.475 8.5625 -1.825 8.5625 -0.125 8.5625 C-0.125 8.8925 -0.125 9.2225 -0.125 9.5625 C-2.105 9.5625 -4.085 9.5625 -6.125 9.5625 C-6.125 8.9025 -6.125 8.2425 -6.125 7.5625 C-7.115 7.5625 -8.105 7.5625 -9.125 7.5625 C-9.125 8.5525 -9.125 9.5425 -9.125 10.5625 C-10.445 10.8925 -11.765 11.2225 -13.125 11.5625 C-12.84498862 7.54900355 -12.36736211 5.84214858 -9.6875 2.75 C-6.02075227 -0.3801505 -4.68549854 -0.54063445 0 0 Z " fill="#AF9E81" transform="translate(89.125,28.4375)"/>
<path d="M0 0 C0 0.33 0 0.66 0 1 C-2.64 1.33 -5.28 1.66 -8 2 C-5.69 2.33 -3.38 2.66 -1 3 C-1 3.33 -1 3.66 -1 4 C-2.12277344 4.01417969 -3.24554687 4.02835937 -4.40234375 4.04296875 C-15.50470908 4.28967651 -15.50470908 4.28967651 -25.43359375 8.94140625 C-27 10 -27 10 -29 10 C-28.05243254 6.58875714 -27.18500608 5.14772873 -24.3828125 2.91015625 C-20.61243728 0.78115684 -17.78396915 0.18816713 -13.5 -0.3125 C-11.59734375 -0.55419922 -11.59734375 -0.55419922 -9.65625 -0.80078125 C-6.21738451 -0.98815533 -3.35462984 -0.71958881 0 0 Z " fill="#3B3938" transform="translate(31,98)"/>
<path d="M0 0 C0.33 0.99 0.66 1.98 1 3 C4.63 3 8.26 3 12 3 C12 4.65 12 6.3 12 8 C6.39 8 0.78 8 -5 8 C-5.33 6.68 -5.66 5.36 -6 4 C-6.66 3.67 -7.32 3.34 -8 3 C-5.36 3 -2.72 3 0 3 C0 2.01 0 1.02 0 0 Z " fill="#B99F6C" transform="translate(102,102)"/>
<path d="M0 0 C-0.125 2.3125 -0.125 2.3125 -1 5 C-6.21718755 9.05781254 -13.59272783 9.17964314 -20 9 C-20.99 8.34 -21.98 7.68 -23 7 C-22.04287109 6.92652344 -22.04287109 6.92652344 -21.06640625 6.8515625 C-20.24011719 6.77679688 -19.41382812 6.70203125 -18.5625 6.625 C-17.73878906 6.55539063 -16.91507812 6.48578125 -16.06640625 6.4140625 C-15.38449219 6.27742188 -14.70257813 6.14078125 -14 6 C-13.67 5.34 -13.34 4.68 -13 4 C-13.66 3.67 -14.32 3.34 -15 3 C-13.25183142 2.49363393 -11.50137737 1.99515381 -9.75 1.5 C-8.77546875 1.2215625 -7.8009375 0.943125 -6.796875 0.65625 C-4 0 -4 0 0 0 Z " fill="#544333" transform="translate(144,116)"/>
<path d="M0 0 C2.64 0 5.28 0 8 0 C8.93423645 3.01031744 9.04449911 3.86650268 8 7 C9.27875 6.979375 10.5575 6.95875 11.875 6.9375 C15.75 6.875 15.75 6.875 18 8 C17.67 8.99 17.34 9.98 17 11 C14.03 11 11.06 11 8 11 C8.99 10.34 9.98 9.68 11 9 C8.03 8.505 8.03 8.505 5 8 C5 7.01 5 6.02 5 5 C3.68 5 2.36 5 1 5 C0.67 5.99 0.34 6.98 0 8 C0 5.36 0 2.72 0 0 Z " fill="#8D7859" transform="translate(113,112)"/>
<path d="M0 0 C0 0.99 0 1.98 0 3 C-2.18652739 3.33965474 -4.37428025 3.67142477 -6.5625 4 C-8.38974609 4.2784375 -8.38974609 4.2784375 -10.25390625 4.5625 C-13.87627848 4.98555077 -17.35712046 5.07501425 -21 5 C-21 3.68 -21 2.36 -21 1 C-18.62625224 0.63457573 -16.25173828 0.28243861 -13.875 -0.0625 C-12.87726563 -0.2181543 -12.87726563 -0.2181543 -11.859375 -0.37695312 C-7.65885188 -0.97408631 -4.13930366 -0.92199443 0 0 Z " fill="#DBBA75" transform="translate(103,42)"/>
<path d="M0 0 C-0.33 0.99 -0.66 1.98 -1 3 C-2.65 3.33 -4.3 3.66 -6 4 C-5.67 4.99 -5.34 5.98 -5 7 C-8.21451269 8.60725635 -11.43612536 8.05748185 -15 8 C-14.67 5.69 -14.34 3.38 -14 1 C-9.32798795 -0.20568053 -4.78503708 -0.09382426 0 0 Z " fill="#AC8858" transform="translate(136,111)"/>
<path d="M0 0 C2.60452271 0.14086602 5.20850197 0.28748464 7.8125 0.4375 C8.91948242 0.49647461 8.91948242 0.49647461 10.04882812 0.55664062 C13.23071342 0.74381035 15.96162378 0.98720793 19 2 C19 2.99 19 3.98 19 5 C16.77090129 5.02714735 14.54170633 5.04646254 12.3125 5.0625 C11.07113281 5.07410156 9.82976562 5.08570312 8.55078125 5.09765625 C5.53764546 5.01478673 2.91724661 4.70839449 0 4 C0 2.68 0 1.36 0 0 Z " fill="#DABF7F" transform="translate(85,114)"/>
<path d="M0 0 C0.9821994 3.27626375 1.11580914 6.22788119 1.09765625 9.640625 C1.09282227 11.24550781 1.09282227 11.24550781 1.08789062 12.8828125 C1.07951172 13.99398437 1.07113281 15.10515625 1.0625 16.25 C1.05798828 17.37664062 1.05347656 18.50328125 1.04882812 19.6640625 C1.03705397 22.44276217 1.0206084 25.22135409 1 28 C1.66 28 2.32 28 3 28 C3.33 30.64 3.66 33.28 4 36 C1.69 35.67 -0.62 35.34 -3 35 C-3.625 33.1875 -3.625 33.1875 -4 31 C-3.01 29.515 -3.01 29.515 -2 28 C-1.64828049 25.33815788 -1.64828049 25.33815788 -1.62109375 22.34375 C-1.58693359 21.23902344 -1.55277344 20.13429688 -1.51757812 18.99609375 C-1.49115234 17.84238281 -1.46472656 16.68867187 -1.4375 15.5 C-1.37759848 13.21864425 -1.31396875 10.93738245 -1.24609375 8.65625 C-1.22216553 7.64369141 -1.1982373 6.63113281 -1.17358398 5.58789062 C-1 3 -1 3 0 0 Z " fill="#C29541" transform="translate(106,70)"/>
<path d="M0 0 C2.97 0.495 2.97 0.495 6 1 C6 1.66 6 2.32 6 3 C5.01 3.495 5.01 3.495 4 4 C4.66 4.66 5.32 5.32 6 6 C6.265625 8.3125 6.265625 8.3125 6.25 11 C6.25515625 11.886875 6.2603125 12.77375 6.265625 13.6875 C6 16 6 16 4 18 C3.53993654 20.20250992 3.53993654 20.20250992 3.375 22.625 C3.30023438 23.44226563 3.22546875 24.25953125 3.1484375 25.1015625 C3.09945312 25.72804688 3.05046875 26.35453125 3 27 C2.67 27 2.34 27 2 27 C1.34 18.09 0.68 9.18 0 0 Z " fill="#C5944A" transform="translate(140,49)"/>
<path d="M0 0 C1.98 0 3.96 0 6 0 C6 2.97 6 5.94 6 9 C2 11 2 11 -1 11 C-1.0270043 9.54176788 -1.04639787 8.08339325 -1.0625 6.625 C-1.07410156 5.81289063 -1.08570312 5.00078125 -1.09765625 4.1640625 C-1 2 -1 2 0 0 Z " fill="#C4964F" transform="translate(102,47)"/>
<path d="M0 0 C0.33 0.99 0.66 1.98 1 3 C2.2375 3.7115625 2.2375 3.7115625 3.5 4.4375 C6 6 6 6 6.6875 8.125 C6.790625 8.74375 6.89375 9.3625 7 10 C7.66 10.33 8.32 10.66 9 11 C1.71428571 14.42857143 1.71428571 14.42857143 -3 14 C-2.67 13.34 -2.34 12.68 -2 12 C-1.34 12 -0.68 12 0 12 C0 10.35 0 8.7 0 7 C-0.66 6.67 -1.32 6.34 -2 6 C-1.34 4.02 -0.68 2.04 0 0 Z " fill="#EDEDEC" transform="translate(147,110)"/>
<path d="M0 0 C0.33 0 0.66 0 1 0 C1.33 7.26 1.66 14.52 2 22 C1.34 22 0.68 22 0 22 C0 17.71 0 13.42 0 9 C-0.66 9.66 -1.32 10.32 -2 11 C-1.68404492 12.67004829 -1.34820041 14.33637583 -1 16 C-1.4375 18.8125 -1.4375 18.8125 -2 21 C-2.66 21 -3.32 21 -4 21 C-4.05392397 18.22890693 -4.09363455 15.45886182 -4.125 12.6875 C-4.14175781 11.90181641 -4.15851563 11.11613281 -4.17578125 10.30664062 C-4.18544922 9.1706543 -4.18544922 9.1706543 -4.1953125 8.01171875 C-4.20578613 7.31522217 -4.21625977 6.61872559 -4.22705078 5.90112305 C-4 4 -4 4 -2 1 C-2 2.32 -2 3.64 -2 5 C-1.34 5 -0.68 5 0 5 C0 3.35 0 1.7 0 0 Z " fill="#DBA958" transform="translate(79,58)"/>
<path d="M0 0 C0.33 0 0.66 0 1 0 C1 5.61 1 11.22 1 17 C-9.05859375 16.4140625 -9.05859375 16.4140625 -12 16 C-13.24546405 13.50907189 -12.7767578 12.58919267 -12 10 C-11.34 10 -10.68 10 -10 10 C-10 11.65 -10 13.3 -10 15 C-8.02 15 -6.04 15 -4 15 C-3.92300501 12.30517531 -4.00836056 9.96005512 -4.5625 7.3125 C-5 5 -5 5 -4 3 C-3.34 3 -2.68 3 -2 3 C-2 7.29 -2 11.58 -2 16 C-1.34 16 -0.68 16 0 16 C0 10.72 0 5.44 0 0 Z " fill="#9F722D" transform="translate(81,64)"/>
<path d="M0 0 C0 3.3 0 6.6 0 10 C-1.99954746 10.04254356 -4.00041636 10.04080783 -6 10 C-7 9 -7 9 -7.09765625 7.15234375 C-7.06510417 5.1015625 -7.03255208 3.05078125 -7 1 C-4 0 -4 0 0 0 Z " fill="#BA8E42" transform="translate(93,48)"/>
<path d="M0 0 C1.32 0 2.64 0 4 0 C4 4.29 4 8.58 4 13 C2.35 12.67 0.7 12.34 -1 12 C-1.02687279 10.18757948 -1.04633715 8.37504767 -1.0625 6.5625 C-1.07410156 5.55316406 -1.08570312 4.54382813 -1.09765625 3.50390625 C-1 1 -1 1 0 0 Z " fill="#CD994C" transform="translate(119,72)"/>
<path d="M0 0 C0.99 0.495 0.99 0.495 2 1 C2 6.28 2 11.56 2 17 C3.98 17 5.96 17 8 17 C8 18.32 8 19.64 8 21 C6.02 21 4.04 21 2 21 C1.67 21.99 1.34 22.98 1 24 C-0.32915021 16.02509872 -0.08801359 8.05813281 0 0 Z " fill="#E7B661" transform="translate(135,59)"/>
<path d="M0 0 C5.94 0 11.88 0 18 0 C19 5 19 5 18 8 C17.34 8 16.68 8 16 8 C16 7.01 16 6.02 16 5 C14.35 5 12.7 5 11 5 C11 4.34 11 3.68 11 3 C10.01 3.33 9.02 3.66 8 4 C8 3.01 8 2.02 8 1 C7.34 1 6.68 1 6 1 C5.67 1.66 5.34 2.32 5 3 C5 2.34 5 1.68 5 1 C3.35 1 1.7 1 0 1 C0 0.67 0 0.34 0 0 Z " fill="#8F724B" transform="translate(103,37)"/>
<path d="M0 0 C0.33 0 0.66 0 1 0 C1 4.29 1 8.58 1 13 C3.97 13.495 3.97 13.495 7 14 C7 14.33 7 14.66 7 15 C4.03 15 1.06 15 -2 15 C-2 17.31 -2 19.62 -2 22 C-2.99 21.67 -3.98 21.34 -5 21 C-5.33 17.37 -5.66 13.74 -6 10 C-3.525 10.495 -3.525 10.495 -1 11 C-0.67 7.37 -0.34 3.74 0 0 Z " fill="#C59748" transform="translate(89,80)"/>
<path d="M0 0 C2.97 0.495 2.97 0.495 6 1 C6.66 6.28 7.32 11.56 8 17 C5.69 16.34 3.38 15.68 1 15 C2.32 14.67 3.64 14.34 5 14 C5 13.01 5 12.02 5 11 C4.01 11.495 4.01 11.495 3 12 C2.01 8.04 1.02 4.08 0 0 Z " fill="#D9A857" transform="translate(75,85)"/>
<path d="M0 0 C1.9451 2.91765 2.45276317 4.62537285 3 8 C2.01 8.33 1.02 8.66 0 9 C-0.33 9.99 -0.66 10.98 -1 12 C-0.34 12 0.32 12 1 12 C1 12.66 1 13.32 1 14 C2.98 14 4.96 14 7 14 C7 14.66 7 15.32 7 16 C4.3125 16.8125 4.3125 16.8125 1 17 C-2.12510859 14.69013713 -3.76282286 13.24518 -4.5 9.375 C-3.91295389 6.58653099 -3.05265176 5.88843962 -1 4 C-0.28552357 1.89667109 -0.28552357 1.89667109 0 0 Z " fill="#EDECEA" transform="translate(75,109)"/>
<path d="M0 0 C0.99 0 1.98 0 3 0 C3 0.66 3 1.32 3 2 C3.54527344 1.855625 4.09054688 1.71125 4.65234375 1.5625 C10.24959924 0.18471403 15.23945745 -0.18287437 21 0 C21 0.66 21 1.32 21 2 C20.01257813 2.12117188 19.02515625 2.24234375 18.0078125 2.3671875 C16.08582031 2.61855469 16.08582031 2.61855469 14.125 2.875 C12.21074219 3.11863281 12.21074219 3.11863281 10.2578125 3.3671875 C6.92835773 3.69877473 6.92835773 3.69877473 5 6 C5 5.34 5 4.68 5 4 C2.03 4.66 -0.94 5.32 -4 6 C-4 5.34 -4 4.68 -4 4 C-2.68 3.67 -1.36 3.34 0 3 C0 2.01 0 1.02 0 0 Z " fill="#644322" transform="translate(80,36)"/>
<path d="M0 0 C1.32 0 2.64 0 4 0 C4 4.29 4 8.58 4 13 C2.02 13.99 2.02 13.99 0 15 C0 10.05 0 5.1 0 0 Z " fill="#CE9F50" transform="translate(124,87)"/>
<path d="M0 0 C0.268125 0.556875 0.53625 1.11375 0.8125 1.6875 C1.9744356 4.06907828 1.9744356 4.06907828 3.625 6.375 C5.24504005 9.46780373 5.24020057 11.55712514 5 15 C4.01 15 3.02 15 2 15 C1.566875 14.1028125 1.566875 14.1028125 1.125 13.1875 C-0.04742026 10.80672208 -0.04742026 10.80672208 -2 8 C-2.25 4.9375 -2.25 4.9375 -2 2 C-1.34 1.34 -0.68 0.68 0 0 Z " fill="#D7A74F" transform="translate(108,90)"/>
<path d="M0 0 C4.455 0.99 4.455 0.99 9 2 C8.67 2.66 8.34 3.32 8 4 C7.34 4 6.68 4 6 4 C6 4.66 6 5.32 6 6 C6.598125 5.505 7.19625 5.01 7.8125 4.5 C10 3 10 3 13 3 C13 3.99 13 4.98 13 6 C9.37 6.66 5.74 7.32 2 8 C2 7.34 2 6.68 2 6 C1.01 5.67 0.02 5.34 -1 5 C0.32 4.34 1.64 3.68 3 3 C2.01 2.67 1.02 2.34 0 2 C0 1.34 0 0.68 0 0 Z " fill="#826F40" transform="translate(135,100)"/>
<path d="M0 0 C0.66 0 1.32 0 2 0 C2 5.94 2 11.88 2 18 C1.01 17.67 0.02 17.34 -1 17 C-1.02684679 14.35409986 -1.04676357 11.70846904 -1.0625 9.0625 C-1.07087891 8.30775391 -1.07925781 7.55300781 -1.08789062 6.77539062 C-1.09652441 4.85005687 -1.05224333 2.92464419 -1 1 C-0.67 0.67 -0.34 0.34 0 0 Z " fill="#C79848" transform="translate(95,72)"/>
<path d="M0 0 C1.25541557 3.76624671 0.37061958 5.37188934 -1 9 C-1.33 8.34 -1.66 7.68 -2 7 C-2.99 7 -3.98 7 -5 7 C-5 6.34 -5 5.68 -5 5 C-5.99 4.67 -6.98 4.34 -8 4 C-8 3.01 -8 2.02 -8 1 C-5.10765685 0.17361624 -3.11257569 0 0 0 Z " fill="#9C8556" transform="translate(146,109)"/>
<path d="M0 0 C0 0.99 0 1.98 0 3 C2.97 3.495 2.97 3.495 6 4 C6 8.95 6 13.9 6 19 C3 16 3 16 2.92578125 13.30078125 C3.05339844 12.31464844 3.18101562 11.32851562 3.3125 10.3125 C3.43238281 9.31863281 3.55226562 8.32476562 3.67578125 7.30078125 C3.78277344 6.54152344 3.88976562 5.78226562 4 5 C1.03 5 -1.94 5 -5 5 C-5 3 -5 3 -3.625 1.375 C-2 0 -2 0 0 0 Z " fill="#7B6E56" transform="translate(146,86)"/>
<path d="M0 0 C2.00860712 4.01721424 2.27155451 5.71387816 2.25 10.0625 C2.25515625 11.10535156 2.2603125 12.14820312 2.265625 13.22265625 C2 16 2 16 0 19 C-0.33 18.01 -0.66 17.02 -1 16 C-1.66 16 -2.32 16 -3 16 C-3 16.66 -3 17.32 -3 18 C-3.99 18 -4.98 18 -6 18 C-6 16.68 -6 15.36 -6 14 C-3.03 14.495 -3.03 14.495 0 15 C0 10.05 0 5.1 0 0 Z " fill="#947446" transform="translate(152,61)"/>
<path d="M0 0 C1.52519276 0.08937803 3.04681929 0.24537146 4.5625 0.4375 C5.80193359 0.59025391 5.80193359 0.59025391 7.06640625 0.74609375 C7.70449219 0.82988281 8.34257812 0.91367187 9 1 C9.33 2.32 9.66 3.64 10 5 C6.7 5 3.4 5 0 5 C-0.33 3.68 -0.66 2.36 -1 1 C-0.67 0.67 -0.34 0.34 0 0 Z " fill="#CDC1A6" transform="translate(122,41)"/>
<path d="M0 0 C0.99 0 1.98 0 3 0 C2.90460938 0.69867188 2.80921875 1.39734375 2.7109375 2.1171875 C2.60007813 3.02726562 2.48921875 3.93734375 2.375 4.875 C2.25898438 5.77992187 2.14296875 6.68484375 2.0234375 7.6171875 C2.01570312 8.40351562 2.00796875 9.18984375 2 10 C2.66 10.66 3.32 11.32 4 12 C4 13.32 4 14.64 4 16 C2.68 16 1.36 16 0 16 C-0.19672365 14.27185839 -0.38196799 12.54240803 -0.5625 10.8125 C-0.71912109 9.36810547 -0.71912109 9.36810547 -0.87890625 7.89453125 C-0.99758751 5.05766623 -0.67765639 2.74576329 0 0 Z " fill="#ECE7D8" transform="translate(139,85)"/>
<path d="M0 0 C1.32 0 2.64 0 4 0 C4 3.3 4 6.6 4 10 C2.35 9.67 0.7 9.34 -1 9 C-1.125 2.25 -1.125 2.25 0 0 Z " fill="#C89B50" transform="translate(95,60)"/>
<path d="M0 0 C0.99 0.33 1.98 0.66 3 1 C3.05382106 3.62527189 3.09358313 6.24944713 3.125 8.875 C3.14175781 9.62136719 3.15851563 10.36773437 3.17578125 11.13671875 C3.1933959 13.09194461 3.10320189 15.04742021 3 17 C2.34 17.66 1.68 18.32 1 19 C-0.15316726 12.65758005 -0.09507063 6.43311296 0 0 Z " fill="#BF9241" transform="translate(87,59)"/>
<path d="M0 0 C2.875 -0.1875 2.875 -0.1875 6 0 C8.1610211 3.24153166 8.64247553 4.23692901 8 8 C5.5 10.3125 5.5 10.3125 3 12 C3.03255208 10.01432292 3.06510417 8.02864583 3.09765625 6.04296875 C3.08263217 3.79694539 3.08263217 3.79694539 2 1 C1.34 0.67 0.68 0.34 0 0 Z " fill="#090602" transform="translate(124,59)"/>
<path d="M0 0 C1.32 0 2.64 0 4 0 C4 0.66 4 1.32 4 2 C5.65 2 7.3 2 9 2 C8.01 2.33 7.02 2.66 6 3 C6 3.66 6 4.32 6 5 C1.545 5.495 1.545 5.495 -3 6 C-3.33 7.65 -3.66 9.3 -4 11 C-4.33 11 -4.66 11 -5 11 C-5 8.69 -5 6.38 -5 4 C-4.0409375 3.8453125 -4.0409375 3.8453125 -3.0625 3.6875 C-2.381875 3.460625 -1.70125 3.23375 -1 3 C-0.67 2.01 -0.34 1.02 0 0 Z " fill="#7E663E" transform="translate(77,45)"/>
<path d="M0 0 C3.96 0.33 7.92 0.66 12 1 C12.33 1.99 12.66 2.98 13 4 C9.78548731 5.60725635 6.56387464 5.05748185 3 5 C2.87625 4.360625 2.7525 3.72125 2.625 3.0625 C2.315625 2.0415625 2.315625 2.0415625 2 1 C1.34 0.67 0.68 0.34 0 0 Z " fill="#D3B87F" transform="translate(94,105)"/>
<path d="M0 0 C1.32 0 2.64 0 4 0 C4 3.3 4 6.6 4 10 C2.02 10 0.04 10 -2 10 C-2 9.01 -2 8.02 -2 7 C-1.34 7 -0.68 7 0 7 C0 4.69 0 2.38 0 0 Z " fill="#D2A255" transform="translate(118,48)"/>
<path d="M0 0 C0 1.32 0 2.64 0 4 C-4.29 4 -8.58 4 -13 4 C-13 3.01 -13 2.02 -13 1 C-8.60563789 0.14256349 -4.47427924 -0.08948558 0 0 Z " fill="#8E6F3D" transform="translate(109,27)"/>
<path d="M0 0 C1.65 0 3.3 0 5 0 C5 0.99 5 1.98 5 3 C7.475 3.495 7.475 3.495 10 4 C9.01 4.495 9.01 4.495 8 5 C7.67 5.99 7.34 6.98 7 8 C7 7.01 7 6.02 7 5 C1.39 5 -4.22 5 -10 5 C-10 4.67 -10 4.34 -10 4 C-6.7 4 -3.4 4 0 4 C0 2.68 0 1.36 0 0 Z " fill="#55381D" transform="translate(114,107)"/>
<path d="M0 0 C0.99 0.33 1.98 0.66 3 1 C3 3.64 3 6.28 3 9 C3.99 9 4.98 9 6 9 C6 6.36 6 3.72 6 1 C6.33 1 6.66 1 7 1 C7 3.97 7 6.94 7 10 C4.36 10 1.72 10 -1 10 C-0.34 9.67 0.32 9.34 1 9 C1 8.01 1 7.02 1 6 C0.34 6 -0.32 6 -1 6 C-1.33 6.66 -1.66 7.32 -2 8 C-1.125 4.125 -1.125 4.125 0 3 C-0.66 2.34 -1.32 1.68 -2 1 C-1.34 0.67 -0.68 0.34 0 0 Z " fill="#BDAA88" transform="translate(145,80)"/>
<path d="M0 0 C0.99 0 1.98 0 3 0 C5 3 5 3 4.875 6 C4 9 4 9 0 12 C0 8.04 0 4.08 0 0 Z " fill="#D3A24D" transform="translate(124,73)"/>
<path d="M0 0 C1.65 0 3.3 0 5 0 C5 5.94 5 11.88 5 18 C3.02 18.33 1.04 18.66 -1 19 C-1 15.7 -1 12.4 -1 9 C-0.67 9 -0.34 9 0 9 C0.33 10.98 0.66 12.96 1 15 C1.66 14.67 2.32 14.34 3 14 C3.46954261 10.95418731 3.46954261 10.95418731 3.625 7.4375 C3.69976562 6.23996094 3.77453125 5.04242188 3.8515625 3.80859375 C3.90054688 2.88175781 3.94953125 1.95492187 4 1 C2.68 0.67 1.36 0.34 0 0 Z " fill="#A57D3B" transform="translate(124,86)"/>
<path d="M0 0 C2.97 0 5.94 0 9 0 C8.67 1.32 8.34 2.64 8 4 C5.03 3.505 5.03 3.505 2 3 C2.66 5.31 3.32 7.62 4 10 C2.68 10 1.36 10 0 10 C0 6.7 0 3.4 0 0 Z " fill="#C89752" transform="translate(123,48)"/>
<path d="M0 0 C1.65 0 3.3 0 5 0 C5.33 2.31 5.66 4.62 6 7 C3.21176345 8.0326802 2.1322726 8.04509293 -0.75 7.0625 C-1.4925 6.711875 -2.235 6.36125 -3 6 C-2.34 5.67 -1.68 5.34 -1 5 C-0.34444881 2.47266765 -0.34444881 2.47266765 0 0 Z " fill="#827243" transform="translate(138,31)"/>
<path d="M0 0 C0.33 0.66 0.66 1.32 1 2 C3.35599235 2.46751788 3.35599235 2.46751788 6.0625 2.625 C7.44115234 2.73714844 7.44115234 2.73714844 8.84765625 2.8515625 C9.55792969 2.90054688 10.26820312 2.94953125 11 3 C10.67 3.99 10.34 4.98 10 6 C6.7 6 3.4 6 0 6 C0 4.02 0 2.04 0 0 Z " fill="#E0C596" transform="translate(82,102)"/>
<path d="M0 0 C1.98 0 3.96 0 6 0 C6.33 3.3 6.66 6.6 7 10 C5.68 9.01 4.36 8.02 3 7 C3 6.34 3 5.68 3 5 C2.01 4.67 1.02 4.34 0 4 C0 2.68 0 1.36 0 0 Z " fill="#B69151" transform="translate(69,85)"/>
<path d="M0 0 C1.32 0 2.64 0 4 0 C6.125 4.625 6.125 4.625 5 8 C2.36 8 -0.28 8 -3 8 C-1.68 7.67 -0.36 7.34 1 7 C1 6.01 1 5.02 1 4 C0.01 3.67 -0.98 3.34 -2 3 C-1.34 3 -0.68 3 0 3 C0 2.01 0 1.02 0 0 Z " fill="#B99E71" transform="translate(103,112)"/>
<path d="M0 0 C0 6.93 0 13.86 0 21 C-0.33 21 -0.66 21 -1 21 C-1.07347656 19.75283203 -1.07347656 19.75283203 -1.1484375 18.48046875 C-1.22320312 17.39378906 -1.29796875 16.30710937 -1.375 15.1875 C-1.44460937 14.10855469 -1.51421875 13.02960938 -1.5859375 11.91796875 C-1.81195733 8.81373814 -1.81195733 8.81373814 -4 6 C-4.125 3.3125 -4.125 3.3125 -4 1 C-1 0 -1 0 0 0 Z " fill="#CE9E42" transform="translate(110,61)"/>
<path d="M0 0 C1.32 0 2.64 0 4 0 C4 3.3 4 6.6 4 10 C2.68 10 1.36 10 0 10 C0 6.7 0 3.4 0 0 Z " fill="#E2B056" transform="translate(118,60)"/>
<path d="M0 0 C0.99 0.33 1.98 0.66 3 1 C3 1.66 3 2.32 3 3 C4.98 3 6.96 3 9 3 C9 4.65 9 6.3 9 8 C5.37 8 1.74 8 -2 8 C-2 7.67 -2 7.34 -2 7 C-0.865625 6.87625 0.26875 6.7525 1.4375 6.625 C3.2009375 6.315625 3.2009375 6.315625 5 6 C5.33 5.34 5.66 4.68 6 4 C2.7 3.67 -0.6 3.34 -4 3 C-2.68 2.01 -1.36 1.02 0 0 Z " fill="#C8A866" transform="translate(87,101)"/>
<path d="M0 0 C2.20914 3.31371 2.22481553 4.3446021 2.125 8.1875 C2.10695313 9.08855469 2.08890625 9.98960938 2.0703125 10.91796875 C2.03550781 11.94857422 2.03550781 11.94857422 2 13 C1.34 13 0.68 13 0 13 C-2.44988842 10.55011158 -2.7658669 9.43395207 -3 6 C-1.5625 2.6875 -1.5625 2.6875 0 0 Z " fill="#C3954B" transform="translate(98,92)"/>
<path d="M0 0 C0.99 0.66 1.98 1.32 3 2 C2.01 3.485 2.01 3.485 1 5 C0.83326446 6.99203989 0.83326446 6.99203989 1 9.0625 C1 10.361875 1 11.66125 1 13 C0.34 13.66 -0.32 14.32 -1 15 C-1.66 14.67 -2.32 14.34 -3 14 C-3.34615998 8.34605369 -2.43425238 4.96993194 0 0 Z " fill="#86653C" transform="translate(134,83)"/>
<path d="M0 0 C0.66 0.33 1.32 0.66 2 1 C2 3.97 2 6.94 2 10 C1.67 10 1.34 10 1 10 C0.67 13.63 0.34 17.26 0 21 C-0.33 21 -0.66 21 -1 21 C-3.08 4.62 -3.08 4.62 0 0 Z " fill="#D0B183" transform="translate(152,55)"/>
<path d="M0 0 C1.32 0 2.64 0 4 0 C4 0.99 4 1.98 4 3 C5.32 3.33 6.64 3.66 8 4 C8 7.96 8 11.92 8 16 C7.67 16 7.34 16 7 16 C6.67 12.7 6.34 9.4 6 6 C3.03 5.505 3.03 5.505 0 5 C0 3.35 0 1.7 0 0 Z " fill="#523518" transform="translate(115,42)"/>
<path d="M0 0 C1.32 0 2.64 0 4 0 C4.33 0.66 4.66 1.32 5 2 C5.66 2 6.32 2 7 2 C7 3.65 7 5.3 7 7 C4.69 7 2.38 7 0 7 C0 4.69 0 2.38 0 0 Z " fill="#B19766" transform="translate(107,38)"/>
<path d="M0 0 C0.53625 0.2475 1.0725 0.495 1.625 0.75 C-0.355 1.74 -0.355 1.74 -2.375 2.75 C-1.385 3.08 -0.395 3.41 0.625 3.75 C-0.83037568 4.58848804 -2.28940373 5.42063934 -3.75 6.25 C-4.96816406 6.94609375 -4.96816406 6.94609375 -6.2109375 7.65625 C-8.375 8.75 -8.375 8.75 -10.375 8.75 C-9.37684314 5.15663529 -8.42674542 3.79274621 -5.5 1.375 C-2.375 -0.25 -2.375 -0.25 0 0 Z " fill="#484644" transform="translate(12.375,99.25)"/>
<path d="M0 0 C3.3 0 6.6 0 10 0 C10 0.99 10 1.98 10 3 C6.52674819 4.1577506 3.63932552 4.06866652 0 4 C0 2.68 0 1.36 0 0 Z " fill="#D0C5AE" transform="translate(121,106)"/>
<path d="M0 0 C0.66 0 1.32 0 2 0 C3.20272819 2.40545638 3.10071472 3.94996953 3.0625 6.625 C3.05347656 7.44226563 3.04445312 8.25953125 3.03515625 9.1015625 C3.02355469 9.72804688 3.01195312 10.35453125 3 11 C1.35 10.67 -0.3 10.34 -2 10 C-2.17942163 6.05272412 -2.09350689 3.4019487 0 0 Z " fill="#C99B46" transform="translate(148,65)"/>
<path d="M0 0 C2.64 0 5.28 0 8 0 C7.67 1.32 7.34 2.64 7 4 C5.68 4 4.36 4 3 4 C2.67 4.66 2.34 5.32 2 6 C2 5.34 2 4.68 2 4 C1.34 4 0.68 4 0 4 C-0.33 4.66 -0.66 5.32 -1 6 C-0.67 4.02 -0.34 2.04 0 0 Z " fill="#C6984B" transform="translate(110,48)"/>
<path d="M0 0 C-0.33 0.99 -0.66 1.98 -1 3 C-3.66666667 3 -6.33333333 3 -9 3 C-9 4.32 -9 5.64 -9 7 C-10.32 7 -11.64 7 -13 7 C-13 6.01 -13 5.02 -13 4 C-13.66 3.67 -14.32 3.34 -15 3 C-13.25183142 2.49363393 -11.50137737 1.99515381 -9.75 1.5 C-8.77546875 1.2215625 -7.8009375 0.943125 -6.796875 0.65625 C-4 0 -4 0 0 0 Z " fill="#513E22" transform="translate(144,116)"/>
<path d="M0 0 C1.32 0 2.64 0 4 0 C4 2.97 4 5.94 4 9 C2.68 9 1.36 9 0 9 C0 6.03 0 3.06 0 0 Z " fill="#D6A658" transform="translate(101,61)"/>
<path d="M0 0 C-0.33 1.32 -0.66 2.64 -1 4 C-3.97 4 -6.94 4 -10 4 C-7.26826666 -1.46346667 -5.50804693 -1.3397952 0 0 Z " fill="#8B774D" transform="translate(94,29)"/>
<path d="M0 0 C2.64 0 5.28 0 8 0 C8.33 0.99 8.66 1.98 9 3 C5.78548731 4.60725635 2.56387464 4.05748185 -1 4 C-0.67 2.68 -0.34 1.36 0 0 Z " fill="#DAD6C0" transform="translate(122,115)"/>
<path d="M0 0 C1.32 0 2.64 0 4 0 C4 0.99 4 1.98 4 3 C6.97 3 9.94 3 13 3 C9.68629 5.20914 8.6553979 5.22481553 4.8125 5.125 C3.91144531 5.10695313 3.01039062 5.08890625 2.08203125 5.0703125 C1.39496094 5.04710938 0.70789063 5.02390625 0 5 C0 3.35 0 1.7 0 0 Z " fill="#543A1F" transform="translate(114,117)"/>
<path d="M0 0 C2.97 0 5.94 0 9 0 C9 0.99 9 1.98 9 3 C6.04335481 4.4783226 3.25770263 4.06032783 0 4 C0 2.68 0 1.36 0 0 Z " fill="#DBC59C" transform="translate(82,43)"/>
<path d="M0 0 C2.5654594 2.5654594 2.54046087 4.47686668 3 8 C2.34 8 1.68 8 1 8 C1 9.32 1 10.64 1 12 C0.34 12 -0.32 12 -1 12 C-1 11.01 -1 10.02 -1 9 C-2.65 9 -4.3 9 -6 9 C-5.67 8.34 -5.34 7.68 -5 7 C-3.35 7 -1.7 7 0 7 C0 4.69 0 2.38 0 0 Z " fill="#957C54" transform="translate(120,98)"/>
<path d="M0 0 C0.99 0 1.98 0 3 0 C3 0.66 3 1.32 3 2 C3.99 1.67 4.98 1.34 6 1 C7 4 7 4 7 7 C5.68 7 4.36 7 3 7 C3 6.34 3 5.68 3 5 C2.01 4.67 1.02 4.34 0 4 C0 2.68 0 1.36 0 0 Z " fill="#CFA248" transform="translate(87,97)"/>
<path d="M0 0 C0.33 0 0.66 0 1 0 C1.66 2.64 2.32 5.28 3 8 C3.66 8 4.32 8 5 8 C5 9.32 5 10.64 5 12 C2.03 11.505 2.03 11.505 -1 11 C-0.67 7.37 -0.34 3.74 0 0 Z " fill="#EADEBF" transform="translate(154,69)"/>
<path d="M0 0 C0.763125 0.350625 1.52625 0.70125 2.3125 1.0625 C5.04759379 2.32360884 5.04759379 2.32360884 8 1 C8 1.66 8 2.32 8 3 C6.39850114 3.67305018 4.79368971 4.33822227 3.1875 5 C2.29417969 5.37125 1.40085937 5.7425 0.48046875 6.125 C-2 7 -2 7 -5 7 C-3.35 4.69 -1.7 2.38 0 0 Z " fill="#3D3C39" transform="translate(62,51)"/>
<path d="M0 0 C-0.66 1.32 -1.32 2.64 -2 4 C-4.64 4 -7.28 4 -10 4 C-10.33 3.01 -10.66 2.02 -11 1 C-7.27569643 0.30710631 -3.78916254 -0.11144596 0 0 Z " fill="#DFC597" transform="translate(94,33)"/>
<path d="M0 0 C0.99 0.33 1.98 0.66 3 1 C3 1.66 3 2.32 3 3 C2.34 3.66 1.68 4.32 1 5 C2.32 4.67 3.64 4.34 5 4 C5 4.99 5 5.98 5 7 C3.0085944 7.38133299 1.00720923 7.71325582 -1 8 C-2 7 -2 7 -2.0625 3.9375 C-2.041875 2.968125 -2.02125 1.99875 -2 1 C-1.34 0.67 -0.68 0.34 0 0 Z " fill="#C3984C" transform="translate(115,98)"/>
<path d="M0 0 C2.64 0 5.28 0 8 0 C8 1.32 8 2.64 8 4 C5.69 4 3.38 4 1 4 C0.67 2.68 0.34 1.36 0 0 Z " fill="#EBE2CD" transform="translate(142,92)"/>
<path d="M0 0 C2.50631564 2.20291954 2.96984401 2.6230501 3.25 6.125 C3 9 3 9 2 10 C2.28604898 11.67542976 2.61781233 13.34385343 3 15 C2.34 15 1.68 15 1 15 C-0.09506492 11.71480525 -0.09960608 9.26336585 -0.0625 5.8125 C-0.05347656 4.72582031 -0.04445313 3.63914063 -0.03515625 2.51953125 C-0.02355469 1.68808594 -0.01195313 0.85664062 0 0 Z " fill="#EAB55A" transform="translate(110,59)"/>
<path d="M0 0 C0.1875 2.375 0.1875 2.375 0 5 C-3.6441774 7.4294516 -5.71241272 7.16179575 -10 7 C-9.13375 6.38125 -9.13375 6.38125 -8.25 5.75 C-5.92980716 4.02870249 -5.92980716 4.02870249 -3.875 1.8125 C-2 0 -2 0 0 0 Z " fill="#BEBAB4" transform="translate(147,117)"/>
<path d="M0 0 C0.99 0 1.98 0 3 0 C2.67 4.62 2.34 9.24 2 14 C1.34 14 0.68 14 0 14 C0 9.38 0 4.76 0 0 Z " fill="#F5EFE1" transform="translate(152,90)"/>
<path d="M0 0 C2.31 0.33 4.62 0.66 7 1 C6.01 1.495 6.01 1.495 5 2 C5.33 3.65 5.66 5.3 6 7 C4.02 7 2.04 7 0 7 C0.33 6.01 0.66 5.02 1 4 C1.05270463 2.63106761 1.05270463 2.63106761 0 0 Z " fill="#967A46" transform="translate(134,39)"/>
<path d="M0 0 C0.33 0.99 0.66 1.98 1 3 C1.94875 2.95875 2.8975 2.9175 3.875 2.875 C7 3 7 3 9 5 C7.39592672 5.02708567 5.7917215 5.04643483 4.1875 5.0625 C2.84751953 5.07990234 2.84751953 5.07990234 1.48046875 5.09765625 C-1 5 -1 5 -4 4 C-4 3.34 -4 2.68 -4 2 C-2.68 2 -1.36 2 0 2 C0 1.34 0 0.68 0 0 Z " fill="#514434" transform="translate(88,119)"/>
<path d="M0 0 C3.60296594 -0.41176754 4.78402067 -0.1535853 7.8125 2 C8.534375 2.66 9.25625 3.32 10 4 C6.7 4 3.4 4 0 4 C0 2.68 0 1.36 0 0 Z " fill="#DBC498" transform="translate(85,114)"/>
<path d="M0 0 C1.05960938 0.00676758 1.05960938 0.00676758 2.140625 0.01367188 C3.88545275 0.02546125 5.630237 0.04339676 7.375 0.0625 C7.375 0.3925 7.375 0.7225 7.375 1.0625 C4.075 1.3925 0.775 1.7225 -2.625 2.0625 C-2.955 3.0525 -3.285 4.0425 -3.625 5.0625 C-4.285 5.0625 -4.945 5.0625 -5.625 5.0625 C-5.625 4.0725 -5.625 3.0825 -5.625 2.0625 C-6.945 1.7325 -8.265 1.4025 -9.625 1.0625 C-6.55966836 -0.47016582 -3.35745728 -0.04026471 0 0 Z " fill="#6D472C" transform="translate(106.625,109.9375)"/>
<path d="M0 0 C0.33 0 0.66 0 1 0 C1.33 2.97 1.66 5.94 2 9 C1.34 9 0.68 9 0 9 C-0.66 10.65 -1.32 12.3 -2 14 C-2.33 14 -2.66 14 -3 14 C-2.67 10.37 -2.34 6.74 -2 3 C-1.34 3 -0.68 3 0 3 C0 2.01 0 1.02 0 0 Z " fill="#D0A152" transform="translate(135,75)"/>
<path d="M0 0 C2.31 0 4.62 0 7 0 C7 1.32 7 2.64 7 4 C4.69 3.67 2.38 3.34 0 3 C0 2.01 0 1.02 0 0 Z " fill="#D7CEB8" transform="translate(121,32)"/>
<path d="M0 0 C0.99 0.33 1.98 0.66 3 1 C2.67 3.64 2.34 6.28 2 9 C1.01 9 0.02 9 -1 9 C-1.09765625 2.84765625 -1.09765625 2.84765625 -1 1 C-0.67 0.67 -0.34 0.34 0 0 Z " fill="#A3875B" transform="translate(149,80)"/>
<path d="M0 0 C1.98 0.99 1.98 0.99 4 2 C3.6875 4.375 3.6875 4.375 3 7 C2.01 7.66 1.02 8.32 0 9 C0 6.03 0 3.06 0 0 Z " fill="#D5A355" transform="translate(124,61)"/>
<path d="M0 0 C1 3 1 3 1 6 C1.66 6.33 2.32 6.66 3 7 C2.67 8.65 2.34 10.3 2 12 C0.68 12.33 -0.64 12.66 -2 13 C-1.34 12.67 -0.68 12.34 0 12 C0 10.35 0 8.7 0 7 C-0.66 6.67 -1.32 6.34 -2 6 C-1.34 4.02 -0.68 2.04 0 0 Z " fill="#DBD9D6" transform="translate(147,110)"/>
<path d="M0 0 C2.31 0 4.62 0 7 0 C5.625 1.5 5.625 1.5 4 3 C3.34 3 2.68 3 2 3 C1.67 5.97 1.34 8.94 1 12 C0.67 12 0.34 12 0 12 C0 8.04 0 4.08 0 0 Z " fill="#6D471B" transform="translate(122,58)"/>
<path d="M0 0 C0.33 0.66 0.66 1.32 1 2 C3.02463255 2.65213292 3.02463255 2.65213292 5 3 C5 3.66 5 4.32 5 5 C5.99 5.33 6.98 5.66 8 6 C5.03 6 2.06 6 -1 6 C-0.67 4.02 -0.34 2.04 0 0 Z " fill="#DAB76F" transform="translate(94,30)"/>
<path d="M0 0 C1.98 0 3.96 0 6 0 C6.66 1.32 7.32 2.64 8 4 C5.36 3.67 2.72 3.34 0 3 C0 2.01 0 1.02 0 0 Z " fill="#B3955C" transform="translate(139,41)"/>
<path d="M0 0 C1.32 0.66 2.64 1.32 4 2 C3.67 6.95 3.34 11.9 3 17 C2.67 17 2.34 17 2 17 C2 12.38 2 7.76 2 3 C1.01 2.67 0.02 2.34 -1 2 C-0.67 1.34 -0.34 0.68 0 0 Z " fill="#807567" transform="translate(153,87)"/>
<path d="M0 0 C6.75 -0.125 6.75 -0.125 9 1 C9 1.99 9 2.98 9 4 C4.545 3.01 4.545 3.01 0 2 C0 1.34 0 0.68 0 0 Z " fill="#725E36" transform="translate(128,29)"/>
<path d="M0 0 C2.64 0 5.28 0 8 0 C8 0.99 8 1.98 8 3 C5.03 3 2.06 3 -1 3 C-0.67 2.01 -0.34 1.02 0 0 Z " fill="#C09B58" transform="translate(93,112)"/>
<path d="M0 0 C1.65 0 3.3 0 5 0 C5 1.32 5 2.64 5 4 C3.68 4 2.36 4 1 4 C0.67 4.66 0.34 5.32 0 6 C-1.125 2.25 -1.125 2.25 0 0 Z " fill="#B59E75" transform="translate(77,109)"/>
<path d="M0 0 C0.99 0 1.98 0 3 0 C2.47535095 4.61691161 1.92509086 6.09987886 -1 10 C-0.67 6.7 -0.34 3.4 0 0 Z " fill="#F4EAD2" transform="translate(139,85)"/>
<path d="M0 0 C2.64 0 5.28 0 8 0 C7.34 1.32 6.68 2.64 6 4 C3.03 3.505 3.03 3.505 0 3 C0 2.01 0 1.02 0 0 Z " fill="#9F7B4E" transform="translate(122,38)"/>
<path d="M0 0 C2.31 0 4.62 0 7 0 C6.67 1.32 6.34 2.64 6 4 C3.03 3.505 3.03 3.505 0 3 C0 2.01 0 1.02 0 0 Z " fill="#795F2F" transform="translate(111,27)"/>
<path d="M0 0 C2.64 0 5.28 0 8 0 C7.67 0.99 7.34 1.98 7 3 C4.69 3 2.38 3 0 3 C0 2.01 0 1.02 0 0 Z " fill="#745A2F" transform="translate(96,28)"/>
<path d="M0 0 C0.66 0.99 1.32 1.98 2 3 C0.1875 4.5625 0.1875 4.5625 -2 6 C-2.99 5.67 -3.98 5.34 -5 5 C-4.1875 3.0625 -4.1875 3.0625 -3 1 C-2.01 0.67 -1.02 0.34 0 0 Z " fill="#7E6C4C" transform="translate(142,117)"/>
<path d="M0 0 C1.06671952 3.20015856 0.94845472 4.88544294 0.5625 8.1875 C0.46066406 9.08855469 0.35882813 9.98960938 0.25390625 10.91796875 C0.12822266 11.94857422 0.12822266 11.94857422 0 13 C-0.33 13 -0.66 13 -1 13 C-1 11.02 -1 9.04 -1 7 C-1.99 6.67 -2.98 6.34 -4 6 C-2.68 4.02 -1.36 2.04 0 0 Z " fill="#AF9871" transform="translate(149,96)"/>
<path d="M0 0 C0.66 0.33 1.32 0.66 2 1 C2.125 7.75 2.125 7.75 1 10 C0.34 10 -0.32 10 -1 10 C-0.67 6.7 -0.34 3.4 0 0 Z " fill="#E9B556" transform="translate(107,69)"/>
<path d="M0 0 C1.9451 2.91765 2.45276317 4.62537285 3 8 C1.35 8.66 -0.3 9.32 -2 10 C-2 7 -2 7 0 5 C-0.33 4.01 -0.66 3.02 -1 2 C-0.67 1.34 -0.34 0.68 0 0 Z " fill="#ECE5D9" transform="translate(75,109)"/>
<path d="M0 0 C0.99 0.66 1.98 1.32 3 2 C3.1875 5.125 3.1875 5.125 3 8 C2.01 8 1.02 8 0 8 C0 7.01 0 6.02 0 5 C-0.99 4.67 -1.98 4.34 -3 4 C-2.01 4 -1.02 4 0 4 C0 2.68 0 1.36 0 0 Z " fill="#BFAB8E" transform="translate(149,46)"/>
<path d="M0 0 C2.475 0.495 2.475 0.495 5 1 C4.67 3.31 4.34 5.62 4 8 C3.566875 7.0409375 3.566875 7.0409375 3.125 6.0625 C2.17176549 3.84793921 2.17176549 3.84793921 0 3 C0 2.01 0 1.02 0 0 Z " fill="#C89A51" transform="translate(134,49)"/>
<path d="M0 0 C-0.33 1.32 -0.66 2.64 -1 4 C-2.65 4 -4.3 4 -6 4 C-6 2.68 -6 1.36 -6 0 C-3 -1 -3 -1 0 0 Z " fill="#A69975" transform="translate(134,32)"/>
<path d="M0 0 C2.64 0 5.28 0 8 0 C8 0.99 8 1.98 8 3 C5.36 3 2.72 3 0 3 C0 2.01 0 1.02 0 0 Z " fill="#8C6C3F" transform="translate(113,112)"/>
<path d="M0 0 C3.3 0 6.6 0 10 0 C9.01 0.495 9.01 0.495 8 1 C7.67 1.66 7.34 2.32 7 3 C4.69 2.67 2.38 2.34 0 2 C0 1.34 0 0.68 0 0 Z " fill="#AA8349" transform="translate(87,111)"/>
<path d="M0 0 C1.32 0.33 2.64 0.66 4 1 C4.33 3.31 4.66 5.62 5 8 C4.01 7.67 3.02 7.34 2 7 C0.8125 3.4375 0.8125 3.4375 0 0 Z " fill="#A17E4B" transform="translate(147,51)"/>
<path d="M0 0 C2.64 0 5.28 0 8 0 C8 0.99 8 1.98 8 3 C6.02 3 4.04 3 2 3 C2 2.34 2 1.68 2 1 C1.34 0.67 0.68 0.34 0 0 Z " fill="#A5824F" transform="translate(93,38)"/>
<path d="M0 0 C2.25 -0.25 2.25 -0.25 5 0 C7.3125 2 7.3125 2 9 4 C8.67 4.99 8.34 5.98 8 7 C7.67 6.34 7.34 5.68 7 5 C6.01 4.67 5.02 4.34 4 4 C4 3.01 4 2.02 4 1 C2.68 0.67 1.36 0.34 0 0 Z " fill="#886B38" transform="translate(132,110)"/>
<path d="M0 0 C2.31 0 4.62 0 7 0 C6.67 0.99 6.34 1.98 6 3 C4.02 3 2.04 3 0 3 C0 2.01 0 1.02 0 0 Z " fill="#E5D0A8" transform="translate(98,106)"/>
<path d="M0 0 C0.33 0 0.66 0 1 0 C1 1.65 1 3.3 1 5 C1.99 5 2.98 5 4 5 C2.25 8.875 2.25 8.875 0 10 C0 6.7 0 3.4 0 0 Z " fill="#E0AD59" transform="translate(124,75)"/>
<path d="M0 0 C1.65 0 3.3 0 5 0 C5 1.32 5 2.64 5 4 C3.35 3.67 1.7 3.34 0 3 C0 2.01 0 1.02 0 0 Z " fill="#EDD295" transform="translate(138,76)"/>
<path d="M0 0 C0.99 0.33 1.98 0.66 3 1 C3 1.99 3 2.98 3 4 C0.69 4 -1.62 4 -4 4 C-2.68 2.68 -1.36 1.36 0 0 Z " fill="#E9CFA1" transform="translate(100,41)"/>
<path d="M0 0 C2.89932357 2.39509338 3.50168276 4.31245243 4 8 C2.68 7.67 1.36 7.34 0 7 C0 4.69 0 2.38 0 0 Z " fill="#AEA793" transform="translate(143,31)"/>
<path d="M0 0 C5.75 0.875 5.75 0.875 8 2 C7.67 2.66 7.34 3.32 7 4 C4.525 3.01 4.525 3.01 2 2 C1.67 2.66 1.34 3.32 1 4 C0.67 2.68 0.34 1.36 0 0 Z " fill="#524126" transform="translate(79,116)"/>
<path d="M0 0 C2.97 0.495 2.97 0.495 6 1 C6 1.66 6 2.32 6 3 C5.34 3 4.68 3 4 3 C2.36323743 4.9600281 2.36323743 4.9600281 1 7 C0.67 4.69 0.34 2.38 0 0 Z " fill="#C79D5B" transform="translate(140,49)"/>
<path d="M0 0 C0.66 0.33 1.32 0.66 2 1 C1.67 2.32 1.34 3.64 1 5 C1.66 5 2.32 5 3 5 C2.67 5.99 2.34 6.98 2 8 C1.01 8 0.02 8 -1 8 C-1.125 2.25 -1.125 2.25 0 0 Z " fill="#CDC2B1" transform="translate(74,41)"/>
<path d="M0 0 C2.64 0 5.28 0 8 0 C8.33 0.99 8.66 1.98 9 3 C7.68 3.33 6.36 3.66 5 4 C5 3.01 5 2.02 5 1 C3.35 1 1.7 1 0 1 C0 0.67 0 0.34 0 0 Z " fill="#C5B995" transform="translate(122,115)"/>
<path d="M0 0 C0.66 0 1.32 0 2 0 C2 1.65 2 3.3 2 5 C3.32 5.33 4.64 5.66 6 6 C4.02 6 2.04 6 0 6 C-1.24546405 3.50907189 -0.7767578 2.58919267 0 0 Z " fill="#6A5334" transform="translate(69,74)"/>
<path d="M0 0 C0.66 0 1.32 0 2 0 C2 2.31 2 4.62 2 7 C1.01 6.34 0.02 5.68 -1 5 C-0.67 3.35 -0.34 1.7 0 0 Z " fill="#E1AF56" transform="translate(132,68)"/>
<path d="M0 0 C0.66 0 1.32 0 2 0 C2.33 3.3 2.66 6.6 3 10 C2.34 8.68 1.68 7.36 1 6 C0.608125 5.29875 0.21625 4.5975 -0.1875 3.875 C-0.5896875 2.946875 -0.5896875 2.946875 -1 2 C-0.67 1.34 -0.34 0.68 0 0 Z " fill="#927E5E" transform="translate(146,39)"/>
<path d="M0 0 C0.66 0 1.32 0 2 0 C2 0.66 2 1.32 2 2 C1.34 2 0.68 2 0 2 C0 1.34 0 0.68 0 0 Z " fill="#FAF6E8" transform="translate(162,84)"/>
<path d="M0 0 C0.99 0.495 0.99 0.495 2 1 C1.01 1.495 1.01 1.495 0 2 C0 1.34 0 0.68 0 0 Z " fill="#F7F5F0" transform="translate(145,30)"/>
<path d="" fill="#F6F5F4" transform="translate(0,0)"/>
<path d="" fill="#F6F5F4" transform="translate(0,0)"/>
<path d="" fill="#F6F5F4" transform="translate(0,0)"/>
<path d="" fill="#F6F5F4" transform="translate(0,0)"/>
<path d="" fill="#F6F5F4" transform="translate(0,0)"/>
<path d="" fill="#F6F5F4" transform="translate(0,0)"/>
<path d="" fill="#F6F5F4" transform="translate(0,0)"/>
<path d="" fill="#F6F5F4" transform="translate(0,0)"/>
<path d="" fill="#FAF6E8" transform="translate(0,0)"/>
<path d="" fill="#F0ECF4" transform="translate(0,0)"/>
<path d="" fill="#F6F5F4" transform="translate(0,0)"/>
<path d="" fill="#F6F5F4" transform="translate(0,0)"/>
<path d="" fill="#F6F5F4" transform="translate(0,0)"/>
<path d="" fill="#F6F5F4" transform="translate(0,0)"/>
<path d="" fill="#FAF6E8" transform="translate(0,0)"/>
<path d="" fill="#F6F5F4" transform="translate(0,0)"/>
<path d="" fill="#F6F5F4" transform="translate(0,0)"/>
<path d="" fill="#FAF6E8" transform="translate(0,0)"/>
<path d="" fill="#F6F5F4" transform="translate(0,0)"/>
<path d="" fill="#EAEDF1" transform="translate(0,0)"/>
<path d="" fill="#F6F5F4" transform="translate(0,0)"/>
<path d="" fill="#F0ECF4" transform="translate(0,0)"/>
<path d="" fill="#EDF2F3" transform="translate(0,0)"/>
</svg>
