<?xml version="1.0" encoding="UTF-8"?>
<svg version="1.1" xmlns="http://www.w3.org/2000/svg" width="512" height="298">
<path d="M0 0 C168.96 0 337.92 0 512 0 C512 98.34 512 196.68 512 298 C343.04 298 174.08 298 0 298 C0 199.66 0 101.32 0 0 Z " fill="#FCFCFD" transform="translate(0,0)"/>
<path d="M0 0 C2.47165848 -0.27980316 4.68978741 -0.37255486 7.16015625 -0.328125 C7.86522812 -0.32625183 8.57029999 -0.32437866 9.29673767 -0.32244873 C10.7871473 -0.31572481 12.27753919 -0.30180341 13.76782227 -0.28125 C16.05696893 -0.25007532 18.34542768 -0.24027853 20.63476562 -0.234375 C22.08073762 -0.22520598 23.52670257 -0.21483053 24.97265625 -0.203125 C25.66118179 -0.19887512 26.34970734 -0.19462524 27.05909729 -0.19024658 C31.88283631 -0.11716369 31.88283631 -0.11716369 33 1 C33.29314558 3.52838064 33.52567494 6.03755287 33.71875 8.57421875 C33.78132492 9.35819031 33.84389984 10.14216187 33.90837097 10.94989014 C34.11144727 13.5286759 34.30636088 16.10798945 34.5 18.6875 C34.56692047 19.56004425 34.63384094 20.4325885 34.70278931 21.33157349 C35.93920272 37.54789009 36.6634479 53.73951322 37 70 C38.40185547 70.42345703 38.40185547 70.42345703 39.83203125 70.85546875 C45.33226287 72.84260545 48.37398472 76.92266634 51 82 C51.38311005 84.58188534 51.38311005 84.58188534 51.39440918 87.38230896 C51.40575897 88.44910889 51.41710876 89.51590881 51.42880249 90.61503601 C51.42587189 91.77517715 51.42294128 92.9353183 51.41992188 94.13061523 C51.42839142 95.36041107 51.43686096 96.59020691 51.44558716 97.85726929 C51.46495925 101.22315006 51.47073561 104.58847608 51.46883965 107.95437503 C51.4687198 110.76747396 51.47728958 113.58052124 51.48561716 116.39360577 C51.50483907 123.03172614 51.50773938 129.66972076 51.50097656 136.30786133 C51.49433512 143.14893479 51.51720642 149.98946917 51.55429029 156.83043331 C51.58500696 162.71086556 51.59634527 168.59112455 51.59245348 174.4716354 C51.59038811 177.9807768 51.59583165 181.48949856 51.62034607 184.99856377 C51.64678747 188.91258677 51.63287014 192.82590575 51.61523438 196.73999023 C51.62849762 197.89810715 51.64176086 199.05622406 51.65542603 200.24943542 C51.5636565 209.0067048 51.5636565 209.0067048 48.58654785 212.70375061 C45.00154723 215.88639248 43.33162025 216.13500031 38.63574219 216.22460938 C37.51407654 216.24712769 36.39241089 216.269646 35.23675537 216.29284668 C30.09982119 216.36371266 24.96295711 216.42154646 19.82568359 216.45996094 C17.11507721 216.48222231 14.40585096 216.5239639 11.69580078 216.58300781 C7.79206645 216.66788432 3.88898369 216.69525589 -0.015625 216.71875 C-1.2251886 216.75174194 -2.4347522 216.78473389 -3.68096924 216.81872559 C-4.81524353 216.81602661 -5.94951782 216.81332764 -7.11816406 216.81054688 C-8.11140686 216.82307495 -9.10464966 216.83560303 -10.12799072 216.84851074 C-13.80116015 215.76330404 -15.48838398 214.28904029 -17.81937027 211.28569412 C-20.19799411 206.6806885 -19.83005655 201.76578943 -19.77636719 196.68994141 C-19.7868811 195.46467239 -19.79739502 194.23940338 -19.80822754 192.977005 C-19.83004982 189.63109196 -19.82502424 186.28741739 -19.80595303 182.94163179 C-19.79069669 179.42910674 -19.80486905 175.91667334 -19.81427002 172.40414429 C-19.82516997 166.50460774 -19.81084591 160.6055226 -19.78222656 154.70605469 C-19.7496053 147.90347307 -19.76013117 141.10197144 -19.793185 134.29941618 C-19.82049539 128.44261384 -19.82421434 122.58613493 -19.80855298 116.72928941 C-19.79923965 113.23851182 -19.79783654 109.74824016 -19.81777191 106.25749588 C-19.83847247 102.36085985 -19.80970788 98.46541288 -19.77636719 94.56884766 C-19.78851257 93.42465866 -19.80065796 92.28046967 -19.81317139 91.10160828 C-19.69396048 83.55637415 -18.07876187 78.67153174 -13 73 C-9.94279013 70.65376917 -8.83599079 70 -5 70 C-4.97716446 69.33760315 -4.95432892 68.6752063 -4.93080139 67.99273682 C-4.69083386 61.04858103 -4.4467806 54.10457707 -4.20043945 47.16064453 C-4.10923891 44.57506872 -4.01905231 41.98945693 -3.92993164 39.40380859 C-3.80106053 35.67014622 -3.6684467 31.93663191 -3.53515625 28.203125 C-3.47727684 26.49144135 -3.47727684 26.49144135 -3.41822815 24.74517822 C-3.21967659 19.27919422 -2.96498096 13.81932221 -2.59155273 8.36230469 C-2.52677231 7.40249695 -2.46199188 6.44268921 -2.39524841 5.45379639 C-2 3 -2 3 0 0 Z " fill="#2B4FA2" transform="translate(388,29)"/>
<path d="M0 0 C19.14 0 38.28 0 58 0 C58 2.64 58 5.28 58 8 C49.42 8 40.84 8 32 8 C32 10.31 32 12.62 32 15 C40.25 15 48.5 15 57 15 C57.02290222 22.52974139 57.04283138 30.05936291 57.05493164 37.58911133 C57.0599737 40.15291757 57.06680714 42.71672091 57.07543945 45.28051758 C57.08751064 48.95655021 57.09322942 52.63254498 57.09765625 56.30859375 C57.10281754 57.46274277 57.10797882 58.61689178 57.11329651 59.80601501 C57.11337204 60.86703934 57.11344757 61.92806366 57.11352539 63.02124023 C57.115746 63.96055893 57.11796661 64.89987762 57.12025452 65.86766052 C57 68 57 68 56 69 C54.31744765 69.0987517 52.63075972 69.12798904 50.9453125 69.12939453 C49.32858643 69.13412277 49.32858643 69.13412277 47.67919922 69.13894653 C46.50631348 69.1369223 45.33342773 69.13489807 44.125 69.1328125 C42.9302002 69.13376923 41.73540039 69.13472595 40.50439453 69.13571167 C37.9723302 69.13639371 35.44026412 69.13453778 32.90820312 69.13037109 C29.0168874 69.12502321 25.12568711 69.13031533 21.234375 69.13671875 C18.78124974 69.13605797 16.32812456 69.13477682 13.875 69.1328125 C12.70211426 69.13483673 11.52922852 69.13686096 10.32080078 69.13894653 C9.2429834 69.13579437 8.16516602 69.13264221 7.0546875 69.12939453 C6.10062012 69.12859894 5.14655273 69.12780334 4.16357422 69.12698364 C2 69 2 69 1 68 C1 66.02 1 64.04 1 62 C12.55 62 24.1 62 36 62 C36 59.36 36 56.72 36 54 C24.12 54 12.24 54 0 54 C0 36.18 0 18.36 0 0 Z " fill="#FBFBFD" transform="translate(375,168)"/>
<path d="M0 0 C5.28 0 10.56 0 16 0 C17.50999108 1.50999108 17.42784138 3.05767863 17.75610352 5.15258789 C17.89617325 6.03342545 18.03624298 6.914263 18.18055725 7.8217926 C18.32851242 8.77907761 18.47646759 9.73636261 18.62890625 10.72265625 C18.78286362 11.69786728 18.93682098 12.67307831 19.09544373 13.67784119 C19.58829868 16.80547164 20.07545492 19.93396007 20.5625 23.0625 C20.89480849 25.17779313 21.22748589 27.29302834 21.56054688 29.40820312 C22.37798637 34.60480321 23.19074374 39.80211963 24 45 C24.33 45 24.66 45 25 45 C25.14099121 44.02764404 25.28198242 43.05528809 25.42724609 42.0534668 C25.95830912 38.39464874 26.49197433 34.73621392 27.02636719 31.07788086 C27.25590199 29.50408864 27.48476086 27.93019767 27.71289062 26.35620117 C28.99142175 17.5382617 30.33455294 8.75527075 32 0 C37.28 0 42.56 0 48 0 C48 24.09 48 48.18 48 73 C44.37 73 40.74 73 37 73 C36.67 58.81 36.34 44.62 36 30 C35.566875 33.58875 35.13375 37.1775 34.6875 40.875 C33.71527152 48.75150656 32.6682426 56.60678244 31.375 64.4375 C31.25213623 65.19337402 31.12927246 65.94924805 31.00268555 66.72802734 C30.12660924 71.87339076 30.12660924 71.87339076 29 73 C27.33570949 73.09823937 25.66718069 73.12973631 24 73.125 C22.63875 73.12886719 22.63875 73.12886719 21.25 73.1328125 C19 73 19 73 18 72 C17.70352241 70.6246379 17.46170167 69.23740519 17.24389648 67.84741211 C17.10189819 66.95421265 16.9598999 66.06101318 16.81359863 65.14074707 C16.66757202 64.19582397 16.52154541 63.25090088 16.37109375 62.27734375 C16.16619324 60.98141296 16.16619324 60.98141296 15.95715332 59.65930176 C15.44612795 56.41940373 14.94225083 53.17838148 14.4375 49.9375 C13.303125 42.698125 12.16875 35.45875 11 28 C10.67 42.85 10.34 57.7 10 73 C6.7 73 3.4 73 0 73 C0 48.91 0 24.82 0 0 Z " fill="#2A4EA2" transform="translate(52,112)"/>
<path d="M0 0 C3.63 0 7.26 0 11 0 C13.18363356 16.97411153 14.8332308 33.92578863 16 51 C16.5547764 45.98735041 17.10595197 40.97432142 17.65405273 35.9609375 C17.84028156 34.26194035 18.0274279 32.56304347 18.21557617 30.86425781 C19.35373316 20.58138881 20.33804894 10.32643659 21 0 C24.96 0 28.92 0 33 0 C33.55450692 5.15510322 34.10569925 10.31054719 34.65405273 15.46630859 C34.84035528 17.21379761 35.02750453 18.96119659 35.21557617 20.70849609 C36.33677843 31.13119227 37.35257025 41.53520062 38 52 C38.4596188 47.75013802 38.91760702 43.50010209 39.375 39.25 C39.51147949 37.98349609 39.64795898 36.71699219 39.78857422 35.41210938 C40.69497823 26.96087954 41.56726307 18.50731644 42.35302734 10.04394531 C42.68585249 6.57807623 43.15279704 3.38881184 44 0 C46.97 0 49.94 0 53 0 C53.49659588 8.55248455 52.46816655 16.68698614 51.2824707 25.13623047 C49.85498183 35.54018842 48.91800181 45.97758856 48.00268555 56.43652344 C47.88578369 57.75040039 47.76888184 59.06427734 47.6484375 60.41796875 C47.54708496 61.59125732 47.44573242 62.7645459 47.34130859 63.97338867 C47 67 47 67 46 71 C41.05 71 36.1 71 31 71 C30.51807664 67.39618317 30.03940071 63.79198213 29.5625 60.1875 C29.42779297 59.18267578 29.29308594 58.17785156 29.15429688 57.14257812 C29.02216797 56.14033203 28.89003906 55.13808594 28.75390625 54.10546875 C28.63345947 53.19949951 28.5130127 52.29353027 28.38891602 51.36010742 C27.83598463 46.58296073 27.43539 41.78929005 27 37 C25.68 48.22 24.36 59.44 23 71 C17.72 71 12.44 71 7 71 C6.08189232 63.07225178 5.16816364 55.14403524 4.26194 47.214921 C3.84088569 43.53236926 3.41798441 39.85005001 2.99072266 36.16821289 C2.57776649 32.60903781 2.16984426 29.04931731 1.76527405 25.48917961 C1.53603102 23.48324148 1.3016998 21.47788693 1.06726074 19.47254944 C0.3285227 12.93302433 -0.17507835 6.58106998 0 0 Z " fill="#284CA1" transform="translate(126,221)"/>
<path d="M0 0 C25 0 25 0 31 4 C34.59354079 9.90567498 34.45275741 15.62934478 34.43359375 22.41015625 C34.4388356 23.49582382 34.44407745 24.58149139 34.44947815 25.70005798 C34.45588041 27.98696032 34.45458473 30.27389566 34.44604492 32.56079102 C34.4375188 36.05479509 34.46634944 39.54717212 34.49804688 43.04101562 C34.49965869 45.26822868 34.49908174 47.49544462 34.49609375 49.72265625 C34.51294472 51.28379906 34.51294472 51.28379906 34.53013611 52.8764801 C34.47240766 58.89483403 34.04374551 62.43418228 30 67 C19.70980299 74.10513603 17.09631283 71 0 71 C0 47.57 0 24.14 0 0 Z " fill="#254A9F" transform="translate(158,6)"/>
<path d="M0 0 C2.64 0 5.28 0 8 0 C8 95.04 8 190.08 8 288 C5.36 288 2.72 288 0 288 C0 192.96 0 97.92 0 0 Z " fill="#23499F" transform="translate(326,5)"/>
<path d="M0 0 C24 0 24 0 30 4 C33.68209323 7.68209323 33.16070603 11.91630972 33.1875 16.9375 C33.20167969 18.14277344 33.21585938 19.34804687 33.23046875 20.58984375 C32.91242772 25.29577289 31.59398645 28.10902033 29 32 C28.34 32 27.68 32 27 32 C27 32.66 27 33.32 27 34 C27.598125 34.2475 28.19625 34.495 28.8125 34.75 C31.38459358 36.21976776 32.43359405 37.49369565 34 40 C34.66032627 43.57981923 34.55535955 47.17801252 34.5625 50.8125 C34.59923828 51.78509766 34.63597656 52.75769531 34.67382812 53.75976562 C34.71042712 59.76606702 33.93325998 63.24756814 29.78100586 67.66674805 C20.99302993 74.24538225 11.07084498 71 0 71 C0 47.57 0 24.14 0 0 Z " fill="#244A9F" transform="translate(8,221)"/>
<path d="M0 0 C21 0 21 0 29 3 C33.92313725 8.04937154 34.20391567 12.53234312 34.25 19.3125 C34.270625 20.05951172 34.29125 20.80652344 34.3125 21.57617188 C34.34707131 26.49826187 33.58574288 29.67746742 31 34 C30.608125 34.78375 30.21625 35.5675 29.8125 36.375 C29.544375 36.91125 29.27625 37.4475 29 38 C29.639375 38.5775 30.27875 39.155 30.9375 39.75 C34.34812927 43.47068647 34.14763511 47.15965183 34.31640625 52.078125 C34.35830078 53.23828125 34.40019531 54.3984375 34.44335938 55.59375 C34.48267578 56.8003125 34.52199219 58.006875 34.5625 59.25 C34.60568359 60.47203125 34.64886719 61.6940625 34.69335938 62.953125 C34.79937283 65.96861881 34.9001844 68.98429468 35 72 C31.04 72 27.08 72 23 72 C22.94392578 69.34517578 22.94392578 69.34517578 22.88671875 66.63671875 C22.821071 64.32029088 22.75462326 62.00388558 22.6875 59.6875 C22.66494141 58.52025391 22.64238281 57.35300781 22.61914062 56.15039062 C22.58369141 55.03212891 22.54824219 53.91386719 22.51171875 52.76171875 C22.48553467 51.73006592 22.45935059 50.69841309 22.43237305 49.63549805 C22.17469746 47.03405807 22.17469746 47.03405807 20.90551758 45.20239258 C18.37507692 43.42419923 18.37507692 43.42419923 12 43 C12 52.57 12 62.14 12 72 C8.04 72 4.08 72 0 72 C0 48.24 0 24.48 0 0 Z " fill="#2B4FA2" transform="translate(37,5)"/>
<path d="M0 0 C22 0 22 0 30 4 C34.27458853 8.55036844 34.20943358 13.34416509 34.25 19.3125 C34.270625 20.05951172 34.29125 20.80652344 34.3125 21.57617188 C34.34678725 26.45781879 33.69700445 29.76927736 31 34 C28.8125 35.375 28.8125 35.375 27 36 C27 36.66 27 37.32 27 38 C27.598125 38.226875 28.19625 38.45375 28.8125 38.6875 C31.67451002 40.40470601 32.52164295 42.01457241 34 45 C34.43237305 48.04614258 34.43237305 48.04614258 34.51171875 51.39453125 C34.54716797 52.59658203 34.58261719 53.79863281 34.61914062 55.03710938 C34.65297852 56.90592773 34.65297852 56.90592773 34.6875 58.8125 C34.72166016 60.07771484 34.75582031 61.34292969 34.79101562 62.64648438 C34.87337129 65.76423445 34.94256529 68.88170759 35 72 C33.18757948 72.02687279 31.37504767 72.04633715 29.5625 72.0625 C28.55316406 72.07410156 27.54382813 72.08570313 26.50390625 72.09765625 C24 72 24 72 23 71 C22.8909158 69.25502835 22.84417348 67.50607656 22.82421875 65.7578125 C22.80037109 64.69175781 22.77652344 63.62570312 22.75195312 62.52734375 C22.70913596 60.2671166 22.67780325 58.00664145 22.65820312 55.74609375 C22.63048828 54.67746094 22.60277344 53.60882813 22.57421875 52.5078125 C22.55963623 51.52441895 22.54505371 50.54102539 22.5300293 49.52783203 C22.21020966 46.91755016 22.21020966 46.91755016 20.33911133 45.21826172 C17.53442534 43.60396435 17.53442534 43.60396435 12 43 C12 52.57 12 62.14 12 72 C8.04 72 4.08 72 0 72 C0 48.24 0 24.48 0 0 Z " fill="#2B4FA2" transform="translate(49,220)"/>
<path d="M0 0 C22 0 22 0 29 3 C33.86765617 8.1238486 34.20366788 12.49588735 34.25 19.3125 C34.270625 20.05951172 34.29125 20.80652344 34.3125 21.57617188 C34.34707131 26.49826187 33.58574288 29.67746742 31 34 C30.608125 34.78375 30.21625 35.5675 29.8125 36.375 C29.544375 36.91125 29.27625 37.4475 29 38 C29.639375 38.763125 30.27875 39.52625 30.9375 40.3125 C33.94238762 44.22795962 34.15227123 47.17365753 34.31640625 51.98046875 C34.35830078 53.14384766 34.40019531 54.30722656 34.44335938 55.50585938 C34.48267578 56.72080078 34.52199219 57.93574219 34.5625 59.1875 C34.62727539 61.02731445 34.62727539 61.02731445 34.69335938 62.90429688 C34.7995309 65.93608381 34.90157952 68.96795315 35 72 C33.18757948 72.02687279 31.37504767 72.04633715 29.5625 72.0625 C28.55316406 72.07410156 27.54382813 72.08570313 26.50390625 72.09765625 C24 72 24 72 23 71 C22.87873768 69.25539933 22.82036316 67.50634226 22.7890625 65.7578125 C22.76070313 64.69175781 22.73234375 63.62570313 22.703125 62.52734375 C22.65122479 60.26708939 22.6068995 58.00664784 22.5703125 55.74609375 C22.539375 54.67746094 22.5084375 53.60882813 22.4765625 52.5078125 C22.45674316 51.52441895 22.43692383 50.54102539 22.41650391 49.52783203 C22.15790258 47.03125775 22.15790258 47.03125775 20.97021484 45.21826172 C18.24022104 43.34120395 18.24022104 43.34120395 11 43 C11 52.9 11 62.8 11 73 C7.37 73 3.74 73 0 73 C0 48.91 0 24.82 0 0 Z " fill="#264BA0" transform="translate(262,112)"/>
<path d="M0 0 C25 0 25 0 31 4 C35.34333233 10.5149985 34.75038997 18.43900543 34 26 C33.03459487 29.28900277 31.99663069 31.14767045 30 34 C28.515 34.495 28.515 34.495 27 35 C27.42152344 35.45890625 27.84304687 35.9178125 28.27734375 36.390625 C28.82519531 37.00421875 29.37304688 37.6178125 29.9375 38.25 C30.48277344 38.85328125 31.02804688 39.4565625 31.58984375 40.078125 C34.22836469 43.67411476 34.16087027 47.50436761 34.31640625 51.859375 C34.35830078 52.97441406 34.40019531 54.08945312 34.44335938 55.23828125 C34.48267578 56.39714844 34.52199219 57.55601562 34.5625 58.75 C34.60568359 59.92433594 34.64886719 61.09867187 34.69335938 62.30859375 C34.79934717 65.20559355 34.90016916 68.1027815 35 71 C31.04 71 27.08 71 23 71 C22.00024937 68.00074811 21.84798913 65.88353146 21.7890625 62.74609375 C21.76070312 61.72708984 21.73234375 60.70808594 21.703125 59.65820312 C21.65095121 57.50733864 21.60670724 55.35626747 21.5703125 53.20507812 C21.539375 52.18736328 21.5084375 51.16964844 21.4765625 50.12109375 C21.45674316 49.1870874 21.43692383 48.25308105 21.41650391 47.29077148 C21.27905762 46.53481689 21.14161133 45.7788623 21 45 C17.61430493 42.43126321 17.61430493 42.43126321 11 42 C11 51.57 11 61.14 11 71 C7.37 71 3.74 71 0 71 C0 47.57 0 24.14 0 0 Z " fill="#274CA1" transform="translate(223,221)"/>
<path d="M0 0 C3.3 0 6.6 0 10 0 C10 23.76 10 47.52 10 72 C6.04 72 2.08 72 -2 72 C-2.31130859 70.576875 -2.31130859 70.576875 -2.62890625 69.125 C-4.90226197 58.99811846 -7.65248911 49.05703462 -10.62524414 39.11328125 C-10.91778076 38.13230469 -11.21031738 37.15132812 -11.51171875 36.140625 C-11.77428467 35.26954102 -12.03685059 34.39845703 -12.30737305 33.50097656 C-12.9914805 31.03076271 -13.49731645 28.51341774 -14 26 C-14.33 41.18 -14.66 56.36 -15 72 C-18.3 72 -21.6 72 -25 72 C-25 48.57 -25 25.14 -25 1 C-20.38 1 -15.76 1 -11 1 C-8.59067962 6.78236891 -6.99712671 12.66930264 -5.53417969 18.74804688 C-4.13922819 24.54157214 -2.57123378 30.23880949 -1 36 C-0.67 24.12 -0.34 12.24 0 0 Z " fill="#274BA0" transform="translate(244,5)"/>
<path d="M0 0 C5.61 0 11.22 0 17 0 C19.60568973 14.48375407 21.93449947 28.98764299 24.05078125 43.55078125 C25.00997037 50.13408434 26.04659867 56.70377841 27.13696289 63.26660156 C27.67620579 66.581638 28 69.6280282 28 73 C26.18757948 73.02687279 24.37504767 73.04633715 22.5625 73.0625 C21.55316406 73.07410156 20.54382812 73.08570313 19.50390625 73.09765625 C17 73 17 73 16 72 C15.5347708 67.67509147 15.29499527 63.34064463 15 59 C10.05 59 5.1 59 0 59 C0.020625 60.19625 0.04125 61.3925 0.0625 62.625 C0.06882571 66.18004869 -0.30111125 69.50555624 -1 73 C-4.63 73 -8.26 73 -12 73 C-11.35141353 66.77948384 -10.52068088 60.62463693 -9.51171875 54.453125 C-9.36724808 53.56123474 -9.2227774 52.66934448 -9.07392883 51.75042725 C-8.76827242 49.86777652 -8.46146608 47.98531217 -8.15356445 46.10302734 C-7.69562678 43.29974835 -7.24306425 40.4956401 -6.79101562 37.69140625 C-4.74441568 25.08351949 -2.45132885 12.53525911 0 0 Z " fill="#294DA1" transform="translate(19,112)"/>
<path d="M0 0 C1.58206057 0.00667536 3.16410534 0.0186375 4.74609375 0.03515625 C5.55240234 0.03966797 6.35871094 0.04417969 7.18945312 0.04882812 C9.18753131 0.06065107 11.18557158 0.07858711 13.18359375 0.09765625 C13.33916748 1.12197754 13.49474121 2.14629883 13.6550293 3.20166016 C14.39107294 8.04239699 15.13052743 12.88260943 15.87109375 17.72265625 C16.07209686 19.03721298 16.07209686 19.03721298 16.27716064 20.37832642 C18.30579395 33.62440251 20.42904573 46.85003043 22.7097168 60.05517578 C22.90476807 61.19712402 23.09981934 62.33907227 23.30078125 63.515625 C23.47206543 64.50328857 23.64334961 65.49095215 23.81982422 66.50854492 C24.18359375 69.09765625 24.18359375 69.09765625 24.18359375 73.09765625 C20.22359375 73.09765625 16.26359375 73.09765625 12.18359375 73.09765625 C11.68859375 66.16765625 11.68859375 66.16765625 11.18359375 59.09765625 C6.23359375 59.09765625 1.28359375 59.09765625 -3.81640625 59.09765625 C-4.14640625 63.38765625 -4.47640625 67.67765625 -4.81640625 72.09765625 C-8.11640625 72.09765625 -11.41640625 72.09765625 -14.81640625 72.09765625 C-15.20727684 64.19141023 -13.88741587 56.73846225 -12.48007202 48.99822998 C-11.77555961 45.12271005 -11.09463784 41.24306533 -10.4140625 37.36328125 C-10.20853508 36.19525467 -10.20853508 36.19525467 -9.99885559 35.00363159 C-8.49170446 26.36513872 -7.23013985 17.69549853 -6.02246094 9.01025391 C-5.87583008 7.97433105 -5.72919922 6.9384082 -5.578125 5.87109375 C-5.45397217 4.96794434 -5.32981934 4.06479492 -5.2019043 3.13427734 C-4.5146579 -0.49650763 -3.98285154 0.10191534 0 0 Z " fill="#284DA1" transform="translate(120.81640625,111.90234375)"/>
<path d="M0 0 C5.61 0 11.22 0 17 0 C18.41952395 4.96833382 19.44334514 9.268831 20.1484375 14.3125 C20.24587753 14.99559738 20.34331757 15.67869476 20.44371033 16.38249207 C20.65109115 17.83734783 20.856466 19.29249076 21.05996704 20.74789429 C21.59304212 24.55873817 22.14046471 28.3674836 22.69140625 32.17578125 C22.85539162 33.3095092 22.85539162 33.3095092 23.02268982 34.46614075 C24.12272013 41.98472181 25.41934087 49.46543574 26.83154297 56.93164062 C27.71210576 61.71471841 28.17773562 66.13531021 28 71 C24.37 71 20.74 71 17 71 C16.505 64.565 16.505 64.565 16 58 C11.05 58 6.1 58 1 58 C0.67 62.29 0.34 66.58 0 71 C-3.63 71 -7.26 71 -11 71 C-8.92341907 54.75877351 -6.31668675 38.6323098 -3.58447266 22.48974609 C-2.33046827 15.00238657 -1.16821348 7.50116022 0 0 Z " fill="#284CA1" transform="translate(124,6)"/>
<path d="M0 0 C5.6035279 5.6035279 6.67159633 8.99473259 6.6875 16.875 C6.62361228 19.06315426 6.54666653 21.25113696 6.4375 23.4375 C2.8075 23.4375 -0.8225 23.4375 -4.5625 23.4375 C-4.61148437 22.51066406 -4.66046875 21.58382813 -4.7109375 20.62890625 C-4.78570312 19.43136719 -4.86046875 18.23382812 -4.9375 17 C-5.00710938 15.80503906 -5.07671875 14.61007813 -5.1484375 13.37890625 C-5.28507812 12.40824219 -5.42171875 11.43757813 -5.5625 10.4375 C-8.29497348 9.07126326 -10.54448902 9.309074 -13.5625 9.4375 C-15.14695025 11.02195025 -14.68978029 12.63684223 -14.69189453 14.83374023 C-14.69504669 15.76818466 -14.69819885 16.70262909 -14.70144653 17.66539001 C-14.6994223 18.68202225 -14.69739807 19.69865448 -14.6953125 20.74609375 C-14.69626923 21.78314957 -14.69722595 22.82020538 -14.69821167 23.88868713 C-14.69889369 26.08700623 -14.69703791 28.28532732 -14.69287109 30.48364258 C-14.68752854 33.85697949 -14.6928126 37.23018292 -14.69921875 40.60351562 C-14.69855787 42.7343753 -14.69727649 44.86523488 -14.6953125 46.99609375 C-14.69733673 48.01070175 -14.69936096 49.02530975 -14.70144653 50.07066345 C-14.69829437 51.00826004 -14.69514221 51.94585663 -14.69189453 52.91186523 C-14.69109894 53.73935776 -14.69030334 54.56685028 -14.68948364 55.41941833 C-14.6898127 57.50800959 -14.6898127 57.50800959 -13.5625 59.4375 C-11.22955225 59.47991723 -8.89547433 59.47842937 -6.5625 59.4375 C-4.44324396 57.31824396 -5.14418983 52.8178907 -5 49.875 C-4.95681641 49.06869141 -4.91363281 48.26238281 -4.86914062 47.43164062 C-4.76274738 45.43381195 -4.66209112 43.4356793 -4.5625 41.4375 C-6.2125 41.4375 -7.8625 41.4375 -9.5625 41.4375 C-9.5625 37.8075 -9.5625 34.1775 -9.5625 30.4375 C-4.2825 30.4375 0.9975 30.4375 6.4375 30.4375 C6.51861115 34.9586958 6.57806327 39.47842842 6.625 44 C6.65013672 45.27681641 6.67527344 46.55363281 6.70117188 47.86914062 C6.76276768 55.77393552 6.72994579 61.50780663 1.5 67.75 C-3.12471975 71.53386162 -6.93990575 71.87511534 -12.8046875 71.75 C-18.07620195 71.15266125 -21.1465448 69.01106919 -24.71411133 65.04638672 C-27.73220548 60.29977146 -27.19286489 54.75985242 -27.19921875 49.3203125 C-27.21016068 48.14918915 -27.2211026 46.9780658 -27.2323761 45.77145386 C-27.24821593 43.29868971 -27.25344498 40.82583783 -27.2487793 38.35302734 C-27.24999388 34.58151663 -27.30977977 30.81388512 -27.37304688 27.04296875 C-27.38118933 24.63542612 -27.38586097 22.22786874 -27.38671875 19.8203125 C-27.41029953 18.69924103 -27.43388031 17.57816956 -27.45817566 16.42312622 C-27.37767331 9.52401919 -26.22987848 5.81594069 -21.35774231 0.849823 C-15.82087234 -3.50605072 -6.08201206 -2.66754915 0 0 Z " fill="#294EA1" transform="translate(288.5625,6.5625)"/>
<path d="M0 0 C3.96 0 7.92 0 12 0 C12 20.13 12 40.26 12 61 C19.19444652 62.693317 19.19444652 62.693317 21.97297668 60.91654968 C23.37790772 58.29477849 23.40011049 56.30981299 23.43237305 53.33520508 C23.45216721 52.17422806 23.47196136 51.01325104 23.49235535 49.8170929 C23.50194023 47.93729988 23.50194023 47.93729988 23.51171875 46.01953125 C23.52966995 44.73640549 23.54762115 43.45327972 23.56611633 42.13127136 C23.61362737 38.72336941 23.64342907 35.31553371 23.66955566 31.90740967 C23.69935598 28.42837437 23.74588801 24.94956739 23.79101562 21.47070312 C23.87706083 14.64726545 23.94440051 7.82375178 24 1 C27.3 1 30.6 1 34 1 C34.0696423 8.8497351 34.12288325 16.69939723 34.15543652 24.54936409 C34.17106391 28.1948046 34.19224805 31.84003307 34.22631836 35.48535156 C34.25901717 39.00613349 34.27687501 42.52671201 34.28463173 46.04763412 C34.29283732 48.03842635 34.31623998 50.02913725 34.33988953 52.01980591 C34.34011612 53.24061859 34.34034271 54.46143127 34.34057617 55.71923828 C34.34723801 56.78957306 34.35389984 57.85990784 34.36076355 58.962677 C33.78779588 63.78657862 31.70574173 67.0982189 28.75 70.875 C24.37603062 74.25738942 18.85361152 73.7343804 13.58203125 73.54296875 C9.43730768 72.9147064 7.27131746 71.9722427 4.296875 69.09375 C-0.48148166 61.37929466 -0.40259231 54.1571071 -0.29296875 45.3125 C-0.28872391 44.01425293 -0.28447906 42.71600586 -0.28010559 41.37841797 C-0.26873422 37.95227243 -0.23933543 34.52651766 -0.20599365 31.1005249 C-0.1751248 27.5944141 -0.1615646 24.08823922 -0.14648438 20.58203125 C-0.11445666 13.72117894 -0.06175344 6.86064855 0 0 Z " fill="#284CA1" transform="translate(220,112)"/>
<path d="M0 0 C10.23 0 20.46 0 31 0 C31 3.63 31 7.26 31 11 C24.73 11 18.46 11 12 11 C12 17.6 12 24.2 12 31 C16.95 31 21.9 31 27 31 C27 34.3 27 37.6 27 41 C22.05 41 17.1 41 12 41 C12 47.93 12 54.86 12 62 C18.27 62 24.54 62 31 62 C31 65.63 31 69.26 31 73 C20.77 73 10.54 73 0 73 C0 48.91 0 24.82 0 0 Z " fill="#2C50A3" transform="translate(183,112)"/>
<path d="M0 0 C4.53474203 4.53474203 6.66745178 7.99966748 6.6875 14.375 C6.605 15.715625 6.5225 17.05625 6.4375 18.4375 C2.8075 18.4375 -0.8225 18.4375 -4.5625 18.4375 C-4.5625 15.7975 -4.5625 13.1575 -4.5625 10.4375 C-5.84125 10.2725 -7.12 10.1075 -8.4375 9.9375 C-9.51644531 9.79828125 -9.51644531 9.79828125 -10.6171875 9.65625 C-12.56748344 9.4002515 -12.56748344 9.4002515 -14.5625 9.4375 C-15.28791089 15.59773531 -15.37598512 20.18007303 -11.5 25.25 C-8.67428786 28.46880515 -5.59904502 31.15248865 -2.26953125 33.828125 C1.92008835 37.77806384 6.220886 43.66768166 6.67578125 49.484375 C6.87640928 59.49465784 6.87640928 59.49465784 4.75 64.0625 C-0.46278671 69.41617283 -4.00382135 71.53000016 -11.4375 71.75 C-16.24386864 71.70044981 -18.8780998 70.6725831 -22.5625 67.4375 C-26.12919978 63.37884164 -26.68748126 60.06090715 -26.625 54.75 C-26.61597656 53.75613281 -26.60695313 52.76226562 -26.59765625 51.73828125 C-26.58605469 50.97902344 -26.57445312 50.21976562 -26.5625 49.4375 C-23.2625 49.4375 -19.9625 49.4375 -16.5625 49.4375 C-16.42972656 50.14777344 -16.29695313 50.85804688 -16.16015625 51.58984375 C-15.98355469 52.50894531 -15.80695313 53.42804688 -15.625 54.375 C-15.45097656 55.29152344 -15.27695312 56.20804687 -15.09765625 57.15234375 C-14.78535012 59.39039844 -14.78535012 59.39039844 -13.5625 60.4375 C-11.22305264 60.15019945 -8.8885857 59.81813221 -6.5625 59.4375 C-6.05847161 52.11482848 -6.05847161 52.11482848 -8.0625 45.1875 C-10.70555593 42.28013848 -13.53521396 39.82506638 -16.53125 37.29296875 C-22.20338619 32.1116905 -26.18630903 26.38954112 -26.77734375 18.609375 C-26.99969839 11.38729643 -26.40729188 6.72679061 -21.5625 1.125 C-16.05472268 -3.52218711 -6.22820335 -2.73166814 0 0 Z " fill="#284DA1" transform="translate(289.5625,221.5625)"/>
<path d="M0 0 C10.23 0 20.46 0 31 0 C31 3.63 31 7.26 31 11 C24.73 11 18.46 11 12 11 C12 17.6 12 24.2 12 31 C16.95 31 21.9 31 27 31 C27 34.3 27 37.6 27 41 C22.05 41 17.1 41 12 41 C12 47.93 12 54.86 12 62 C18.27 62 24.54 62 31 62 C31 65.3 31 68.6 31 72 C20.77 72 10.54 72 0 72 C0 48.24 0 24.48 0 0 Z " fill="#2D50A3" transform="translate(185,220)"/>
<path d="M0 0 C10.23 0 20.46 0 31 0 C31 3.3 31 6.6 31 10 C24.73 10 18.46 10 12 10 C12 16.6 12 23.2 12 30 C16.95 30 21.9 30 27 30 C27 33.3 27 36.6 27 40 C22.05 40 17.1 40 12 40 C12 46.93 12 53.86 12 61 C18.27 61 24.54 61 31 61 C31 64.3 31 67.6 31 71 C20.77 71 10.54 71 0 71 C0 47.57 0 24.14 0 0 Z " fill="#2B4FA2" transform="translate(90,221)"/>
<path d="M0 0 C9.9 0 19.8 0 30 0 C30 3.3 30 6.6 30 10 C23.73 10 17.46 10 11 10 C11 16.6 11 23.2 11 30 C15.95 30 20.9 30 26 30 C26 33.3 26 36.6 26 40 C21.05 40 16.1 40 11 40 C11 46.93 11 53.86 11 61 C17.27 61 23.54 61 30 61 C30 64.3 30 67.6 30 71 C20.1 71 10.2 71 0 71 C0 47.57 0 24.14 0 0 Z " fill="#254A9F" transform="translate(79,6)"/>
<path d="M0 0 C0.75601501 -0.01140015 1.51203003 -0.02280029 2.29095459 -0.0345459 C3.89134135 -0.05342879 5.49180558 -0.06650714 7.09228516 -0.07421875 C9.52516972 -0.09357729 11.95463163 -0.15559172 14.38671875 -0.21875 C27.42454464 -0.39701484 27.42454464 -0.39701484 31.84765625 3.2265625 C34.75247494 6.34113834 35.22346767 9.1486248 35.296875 13.40625 C35.35101563 14.47166016 35.35101563 14.47166016 35.40625 15.55859375 C35.47671242 17.50687966 35.39587725 19.4592057 35.296875 21.40625 C32.85558831 23.84753669 32.22606686 23.658437 28.87890625 23.66503906 C27.50738403 23.67449554 27.50738403 23.67449554 26.1081543 23.68414307 C25.11855713 23.6800946 24.12895996 23.67604614 23.109375 23.671875 C22.09593018 23.67378845 21.08248535 23.6757019 20.03833008 23.67767334 C17.89306388 23.67903591 15.74778947 23.67533447 13.60253906 23.66699219 C10.31035928 23.65629382 7.01872522 23.66688519 3.7265625 23.6796875 C1.64583212 23.67836592 -0.43489791 23.67580355 -2.515625 23.671875 C-3.50522217 23.67592346 -4.49481934 23.67997192 -5.5144043 23.68414307 C-6.42875244 23.67783875 -7.34310059 23.67153442 -8.28515625 23.66503906 C-9.09186768 23.66344788 -9.8985791 23.66185669 -10.72973633 23.66021729 C-12.703125 23.40625 -12.703125 23.40625 -14.703125 21.40625 C-15.35384262 15.92811563 -16.01926129 9.525582 -12.890625 4.71875 C-8.79839096 0.39267401 -5.6637897 0.06611489 0 0 Z " fill="#3457A6" transform="translate(464.703125,221.59375)"/>
<path d="M0 0 C11.55 0 23.1 0 35 0 C35 3.3 35 6.6 35 10 C31.04 10 27.08 10 23 10 C23 30.79 23 51.58 23 73 C19.37 73 15.74 73 12 73 C12 52.54 12 32.08 12 11 C8.04 11 4.08 11 0 11 C0 7.37 0 3.74 0 0 Z " fill="#284CA1" transform="translate(143,112)"/>
<path d="M0 0 C3.96 0 7.92 0 12 0 C12 23.76 12 47.52 12 72 C8.04 72 4.08 72 0 72 C0 48.24 0 24.48 0 0 Z " fill="#3054A4" transform="translate(199,5)"/>
<path d="M0 0 C0.8646991 -0.01283524 1.72939819 -0.02567047 2.62030029 -0.03889465 C3.56190002 -0.04628159 4.50349976 -0.05366852 5.47363281 -0.0612793 C6.9186618 -0.07338692 6.9186618 -0.07338692 8.3928833 -0.08573914 C10.43735952 -0.09959954 12.48185906 -0.11031289 14.52636719 -0.11816406 C17.64986311 -0.13535007 20.77229355 -0.17921552 23.89550781 -0.22338867 C25.87987501 -0.23351749 27.86425123 -0.242033 29.84863281 -0.2487793 C31.24888702 -0.27504143 31.24888702 -0.27504143 32.6774292 -0.30183411 C36.95634118 -0.28756517 39.28679959 -0.21973751 42.99414062 2.07861328 C47.24509694 6.69419811 45.92675781 7.35131611 45.92675781 15.17700195 C27.44675781 15.17700195 8.96675781 15.17700195 -10.07324219 15.17700195 C-10.07324219 6.17700195 -10.07324219 6.17700195 -7.63574219 3.17700195 C-6.79011719 2.51700195 -5.94449219 1.85700195 -5.07324219 1.17700195 C-3.54108798 -0.35515226 -2.13573616 0.02750642 0 0 Z " fill="#FCFCFD" transform="translate(386.0732421875,105.822998046875)"/>
<path d="M0 0 C7.92 0 15.84 0 24 0 C24.2475 4.57875 24.2475 4.57875 24.5 9.25 C24.57831055 10.65233887 24.57831055 10.65233887 24.65820312 12.08300781 C25.00445992 18.7525732 25 25.29509106 25 32 C16.42 32 7.84 32 -1 32 C-1.08283601 21.23131858 -0.91336577 10.73204779 0 0 Z " fill="#F7F8FB" transform="translate(392,51)"/>
<path d="M0 0 C4.03843343 2.60254599 6.29289779 5.25369336 7.8125 9.8125 C8.33103818 14.7513636 8.36449525 18.66604834 6.1875 23.1875 C2.36528313 27.41205548 -0.84719048 30.00514691 -6.625 30.4375 C-11.14656996 30.23891754 -13.53718186 28.54896804 -16.77734375 25.515625 C-20.46170941 21.06580941 -20.60934227 17.13993845 -20.51171875 11.5078125 C-20.06151844 7.76518339 -18.64495092 5.62101534 -16.1875 2.8125 C-15.671875 2.214375 -15.15625 1.61625 -14.625 1 C-10.41877278 -2.47470945 -4.78166328 -1.78140397 0 0 Z " fill="#FAFBFC" transform="translate(410.1875,130.1875)"/>
<path d="M0 0 C9 0 9 0 12 2 C12.38095093 3.92196655 12.38095093 3.92196655 12.38818359 6.29443359 C12.40236832 7.62624161 12.40236832 7.62624161 12.4168396 8.98495483 C12.41076691 9.94640411 12.40469421 10.90785339 12.3984375 11.8984375 C12.40274277 13.37819565 12.40274277 13.37819565 12.40713501 14.8878479 C12.40917916 16.97764661 12.40362491 19.0674643 12.39111328 21.15722656 C12.37509888 24.35525456 12.39093283 27.55201211 12.41015625 30.75 C12.40817321 32.77864862 12.40432828 34.80729646 12.3984375 36.8359375 C12.40754654 38.27203873 12.40754654 38.27203873 12.4168396 39.7371521 C12.40738312 40.63132843 12.39792664 41.52550476 12.38818359 42.44677734 C12.38579681 43.23128265 12.38341003 44.01578796 12.38095093 44.82406616 C11.85535019 47.82621773 11.36178392 49.01227394 9 51 C6.03 51 3.06 51 0 51 C0 34.17 0 17.34 0 0 Z " fill="#F8F9FC" transform="translate(169,16)"/>
<path d="M0 0 C2.96419925 0.72255913 4.11270897 2.16292614 6.03515625 4.49609375 C6.53686523 7.07397461 6.53686523 7.07397461 6.53125 9.9609375 C6.53189453 11.00830078 6.53253906 12.05566406 6.53320312 13.13476562 C6.51322266 14.22337891 6.49324219 15.31199219 6.47265625 16.43359375 C6.47974609 17.51833984 6.48683594 18.60308594 6.49414062 19.72070312 C6.44970327 25.28220888 6.38458868 28.85806378 3.03515625 33.49609375 C0.19431984 34.91651196 -1.81961653 34.81061647 -4.96484375 34.49609375 C-7.81254022 32.34803438 -8.84920029 31.16108584 -9.46655273 27.61108398 C-9.46469971 26.51997314 -9.46284668 25.4288623 -9.4609375 24.3046875 C-9.46158203 23.11294922 -9.46222656 21.92121094 -9.46289062 20.69335938 C-9.44291016 19.45263672 -9.42292969 18.21191406 -9.40234375 16.93359375 C-9.40943359 15.68900391 -9.41652344 14.44441406 -9.42382812 13.16210938 C-9.35981207 4.06690464 -9.35981207 4.06690464 -7.68383789 1.64477539 C-5.25535126 0.02199033 -2.85721456 0.08257846 0 0 Z " fill="#FFE066" transform="translate(458.96484375,258.50390625)"/>
<path d="M0 0 C2.97048443 0.72409121 4.11164237 2.15322628 6.03515625 4.49609375 C6.85568215 8.60247851 6.63795518 12.75435772 6.59765625 16.93359375 C6.62150391 18.06603516 6.64535156 19.19847656 6.66992188 20.36523438 C6.65356266 29.61909464 6.65356266 29.61909464 3.69140625 32.74609375 C0.43458761 34.8917625 -1.13984443 35.22854043 -4.96484375 34.49609375 C-7.33984375 32.80859375 -7.33984375 32.80859375 -8.96484375 30.49609375 C-9.21484375 27.74609375 -9.21484375 27.74609375 -8.96484375 25.49609375 C-7.97484375 25.49609375 -6.98484375 25.49609375 -5.96484375 25.49609375 C-5.63484375 27.14609375 -5.30484375 28.79609375 -4.96484375 30.49609375 C-2.98484375 30.16609375 -1.00484375 29.83609375 1.03515625 29.49609375 C1.03515625 26.52609375 1.03515625 23.55609375 1.03515625 20.49609375 C0.70515625 20.82609375 0.37515625 21.15609375 0.03515625 21.49609375 C-5.23321982 21.95421341 -5.23321982 21.95421341 -7.63671875 20.44921875 C-9.65784447 17.47697505 -9.39925396 14.4616895 -9.33984375 10.99609375 C-9.35144531 10.31933594 -9.36304688 9.64257812 -9.375 8.9453125 C-9.35798606 6.06995658 -9.29091058 3.99167545 -7.6875 1.5546875 C-5.24343145 0.0527769 -2.81387022 0.08132573 0 0 Z " fill="#FFE168" transform="translate(492.96484375,258.50390625)"/>
<path d="M0 0 C3.03522895 1.63435405 5.28352297 3.055553 7.375 5.8125 C8.73537221 10.57380273 8.56878187 13.92337717 6.25 18.3125 C3.23987313 21.90792932 1.6634068 22.7876502 -2.9375 23.375 C-6.78465622 22.90391965 -8.28305891 21.71694109 -11 19 C-13.52481154 15.51335549 -13.43474022 12.20248882 -13 8 C-9.75301878 2.06586192 -6.96213549 -0.81907476 0 0 Z " fill="#2D51A3" transform="translate(364,13)"/>
<path d="M0 0 C2.8100346 1.79363911 4.50940468 3.01880935 6 6 C6.55846492 10.57758127 6.69273432 14.57370819 4.0625 18.5 C1.19902069 21.97088401 1.19902069 21.97088401 -1.109375 22.30859375 C-5.88096405 22.54152635 -8.21847814 22.59395662 -12.125 19.625 C-14.90838206 15.45487955 -14.88939767 10.80755499 -14 6 C-10.44272712 0.18978764 -6.66427238 -0.9575104 0 0 Z " fill="#2A4EA2" transform="translate(369,60)"/>
<path d="M0 0 C2.8100346 1.79363911 4.50940468 3.01880935 6 6 C6.41948626 9.3858534 6.49414522 12.62068431 6 16 C3.5625 19.0625 3.5625 19.0625 1 21 C0.67 21.33 0.34 21.66 0 22 C-7.04810127 22.58734177 -7.04810127 22.58734177 -10.9375 20.1875 C-14.35554273 16.56230316 -14.33164245 12.97569248 -14.29296875 8.2265625 C-13.85946619 4.93194303 -12.37450458 3.23482784 -10 1 C-6.79826746 -0.60086627 -3.47422941 -0.49917089 0 0 Z " fill="#294EA1" transform="translate(447,33)"/>
<path d="M0 0 C4.29 0 8.58 0 13 0 C12.34 1.2375 11.68 2.475 11 3.75 C8.26502971 9.92071589 7.67401372 16.70380445 9.68359375 23.21484375 C10.39981773 24.83577171 11.19408352 26.42174689 12 28 C12 28.99 12 29.98 12 31 C8.04 31 4.08 31 0 31 C0 20.77 0 10.54 0 0 Z " fill="#EEF1F6" transform="translate(375,129)"/>
<path d="M0 0 C3.96 0 7.92 0 12 0 C12 10.23 12 20.46 12 31 C8.04 31 4.08 31 0 31 C0.66 29.5975 1.32 28.195 2 26.75 C4.67784017 19.98845358 5.38859253 13.23161603 3.09375 6.23828125 C2.15973699 4.11340166 1.09228117 2.0480272 0 0 Z " fill="#F7F8FA" transform="translate(420,129)"/>
<path d="M0 0 C8 0 8 0 10.46484375 1.53125 C12.58789534 4.94541948 12.56643597 7.50105131 12.5625 11.5 C12.58441406 12.8096875 12.60632813 14.119375 12.62890625 15.46875 C12 19 12 19 9.90234375 21.46875 C7 23 7 23 0 23 C0 15.41 0 7.82 0 0 Z " fill="#EBEFF6" transform="translate(273,122)"/>
<path d="M0 0 C8 0 8 0 10.47265625 1 C12.83582927 4.09448743 12.54027329 7.27363929 12.4375 11 C12.44458984 11.72445313 12.45167969 12.44890625 12.45898438 13.1953125 C12.40542414 17.66141215 12.28753247 18.71246753 9 22 C6.03 22 3.06 22 0 22 C0 14.74 0 7.48 0 0 Z " fill="#F8F9FC" transform="translate(19,260)"/>
<path d="M0 0 C4.68139254 -0.02465288 9.36274759 -0.04283739 14.04418945 -0.05493164 C15.63794614 -0.05997157 17.23169819 -0.0668035 18.82543945 -0.07543945 C21.11150253 -0.08751999 23.39750467 -0.09323155 25.68359375 -0.09765625 C26.40026718 -0.10281754 27.11694061 -0.10797882 27.85533142 -0.11329651 C29.57063672 -0.11349263 31.28581266 -0.06192007 33 0 C34 1 34 1 34 7 C22.78 7 11.56 7 0 7 C0 4.69 0 2.38 0 0 Z " fill="#FDFDFE" transform="translate(458,230)"/>
<path d="M0 0 C2 1.125 2 1.125 3 3 C3.1875 6.1875 3.1875 6.1875 3 9 C1.68 9 0.36 9 -1 9 C-1.33 7.35 -1.66 5.7 -2 4 C-3.65 4.33 -5.3 4.66 -7 5 C-7.08849037 9.15904726 -6.85363028 11.09805103 -3.9296875 14.1875 C-3.10726563 14.93 -2.28484375 15.6725 -1.4375 16.4375 C2.81872665 20.39646638 2.81872665 20.39646638 3.6640625 23.2109375 C3.7040657 26.79789152 3.10879046 30.07112436 1 33 C-2.16736204 34.58368102 -4.5153015 34.42056706 -8 34 C-10.68540959 31.03916379 -11.90209888 29.12586284 -12.25 25.125 C-12.1675 24.42375 -12.085 23.7225 -12 23 C-10.68 23 -9.36 23 -8 23 C-7.67 24.98 -7.34 26.96 -7 29 C-5.35 29 -3.7 29 -2 29 C-1.53648635 26.21891808 -1.31970502 24.68590537 -2 22 C-3.88267882 19.65402214 -5.91546108 17.7072845 -8.15234375 15.69921875 C-10.24994428 13.77013581 -10.92385809 12.77166897 -11.203125 9.94140625 C-11.21859375 9.15636719 -11.2340625 8.37132812 -11.25 7.5625 C-11.27578125 6.78003906 -11.3015625 5.99757813 -11.328125 5.19140625 C-11 3 -11 3 -9.734375 1.23828125 C-6.71113482 -0.92020329 -3.55929154 -0.53389373 0 0 Z " fill="#FFE16B" transform="translate(397,259)"/>
<path d="M0 0 C2.97 0 5.94 0 9 0 C11.61042212 2.61042212 11.28846788 4.51121185 11.32226562 8.07226562 C11.31904297 8.85279297 11.31582031 9.63332031 11.3125 10.4375 C11.32861328 11.21416016 11.34472656 11.99082031 11.36132812 12.79101562 C11.36613758 18.37479539 11.36613758 18.37479539 9.97729492 20.74633789 C8 22 8 22 0 22 C0 14.74 0 7.48 0 0 Z " fill="#F5F7FA" transform="translate(234,231)"/>
<path d="M0 0 C4.62 0 9.24 0 14 0 C14 0.99 14 1.98 14 3 C10.7 3 7.4 3 4 3 C4 6.96 4 10.92 4 15 C6.64 15 9.28 15 12 15 C12 15.99 12 16.98 12 18 C9.36 18 6.72 18 4 18 C4 21.96 4 25.92 4 30 C7.3 30 10.6 30 14 30 C14 31.32 14 32.64 14 34 C9.38 34 4.76 34 0 34 C0 22.78 0 11.56 0 0 Z " fill="#FFE26D" transform="translate(369,259)"/>
<path d="M0 0 C2.90848298 2.47221053 3.81723778 4.08618892 4.5625 7.8125 C3.52753418 13.67730631 -0.28843435 18.03702286 -3.75 22.75 C-6.23136777 25.92586005 -6.23136777 25.92586005 -7 30 C-3.7 30 -0.4 30 3 30 C3 31.32 3 32.64 3 34 C-1.62 34 -6.24 34 -11 34 C-11.72840525 29.06303105 -12.0165818 26.40990214 -9.03125 22.26953125 C-7.38195297 20.41929139 -5.72827979 18.57294337 -4.0703125 16.73046875 C-1.04269186 12.737437 -0.91928181 9.92380946 -1 5 C-2.65 4.67 -4.3 4.34 -6 4 C-6.66 6.31 -7.32 8.62 -8 11 C-8.99 11 -9.98 11 -11 11 C-11.35820896 3.71641791 -11.35820896 3.71641791 -10 1 C-6.72292455 -0.63853772 -3.51752109 -0.75021577 0 0 Z " fill="#FFE16C" transform="translate(443,259)"/>
<path d="M0 0 C8 0 8 0 9.97265625 1.0703125 C11.5400281 4.01434936 11.43399831 6.5624046 11.4375 9.875 C11.45683594 11.08929688 11.47617188 12.30359375 11.49609375 13.5546875 C10.90619895 17.6514372 10.15044038 19.31421128 7 22 C4.69 22 2.38 22 0 22 C0 14.74 0 7.48 0 0 Z " fill="#F5F7FA" transform="translate(61,231)"/>
<path d="M0 0 C9.24 0 18.48 0 28 0 C28 2.64 28 5.28 28 8 C18.76 8 9.52 8 0 8 C0 5.36 0 2.72 0 0 Z " fill="#F5F6F9" transform="translate(390,90)"/>
<path d="M0 0 C8 0 8 0 9.9765625 1.06640625 C11.54505644 4.0297822 11.39594858 6.61016727 11.375 9.9375 C11.38273437 11.16339844 11.39046875 12.38929687 11.3984375 13.65234375 C10.78532819 18.80366414 10.78532819 18.80366414 8 21 C5.36 21 2.72 21 0 21 C0 14.07 0 7.14 0 0 Z " fill="#F9FAFC" transform="translate(49,16)"/>
<path d="M0 0 C0.33 0 0.66 0 1 0 C1.19335938 1.16015625 1.38671875 2.3203125 1.5859375 3.515625 C1.71121826 4.26682617 1.83649902 5.01802734 1.96557617 5.79199219 C2.23980916 7.4383713 2.51340357 9.08485689 2.78637695 10.73144531 C3.39127949 14.3758847 4.00317351 18.01800244 4.64453125 21.65625 C4.82371094 22.6771875 5.00289062 23.698125 5.1875 24.75 C5.34605469 25.63171875 5.50460938 26.5134375 5.66796875 27.421875 C6.03916143 30.30407699 6.05517146 33.09713264 6 36 C2.37 36 -1.26 36 -5 36 C-4.40394922 27.64274058 -3.3787982 19.50054092 -1.9375 11.25 C-1.75123047 10.15945312 -1.56496094 9.06890625 -1.37304688 7.9453125 C-0.91988563 5.29606214 -0.46215796 2.64769297 0 0 Z " fill="#E9EDF5" transform="translate(124,126)"/>
<path d="M0 0 C2.10421049 3.58899972 2.82959699 7.33219687 3.5625 11.375 C3.69180908 12.07238281 3.82111816 12.76976562 3.9543457 13.48828125 C5.15760383 20.29981544 5.68686614 27.08945959 6 34 C2.37 34 -1.26 34 -5 34 C-3.78385337 22.56822166 -2.12118336 11.2988367 0 0 Z " fill="#E9ECF5" transform="translate(26,128)"/>
<path d="M0 0 C4.55555556 0.55555556 4.55555556 0.55555556 6 2 C6.09946453 3.76859193 6.13080217 5.54111451 6.1328125 7.3125 C6.13474609 8.92511719 6.13474609 8.92511719 6.13671875 10.5703125 C6.13285156 11.70210938 6.12898438 12.83390625 6.125 14 C6.12886719 15.13179688 6.13273437 16.26359375 6.13671875 17.4296875 C6.13542969 18.50476563 6.13414062 19.57984375 6.1328125 20.6875 C6.13168457 21.68136719 6.13055664 22.67523438 6.12939453 23.69921875 C6 26 6 26 5 27 C3.00041636 27.04080783 0.99954746 27.04254356 -1 27 C-3.00149936 22.99700128 -2.18485209 17.90083269 -2.1875 13.5 C-2.19974609 12.42878906 -2.21199219 11.35757812 -2.22460938 10.25390625 C-2.22654297 9.23167969 -2.22847656 8.20945312 -2.23046875 7.15625 C-2.23457764 6.21587891 -2.23868652 5.27550781 -2.24291992 4.30664062 C-2 2 -2 2 0 0 Z " fill="#FFFCF5" transform="translate(455,262)"/>
<path d="M0 0 C0.33 0 0.66 0 1 0 C1.6751323 4.35289756 2.33859376 8.70749743 3 13.0625 C3.19078125 14.29162109 3.3815625 15.52074219 3.578125 16.78710938 C3.75859375 17.98271484 3.9390625 19.17832031 4.125 20.41015625 C4.29257813 21.50465088 4.46015625 22.59914551 4.6328125 23.72680664 C5.0199049 27.17743681 5.06143853 30.53064309 5 34 C1.7 34 -1.6 34 -5 34 C-4.42432534 22.585761 -2.98705378 11.0578433 0 0 Z " fill="#F0F2F8" transform="translate(132,20)"/>
<path d="M0 0 C8 0 8 0 9.97265625 1.12890625 C11.4343452 3.79106977 11.43376145 5.91301454 11.4375 8.9375 C11.45683594 9.97777344 11.47617187 11.01804688 11.49609375 12.08984375 C11 15 11 15 9.41015625 17.37890625 C7 19 7 19 0 19 C0 12.73 0 6.46 0 0 Z " fill="#F6F7FB" transform="translate(19,231)"/>
<path d="M0 0 C7.26 0 14.52 0 22 0 C22 2.64 22 5.28 22 8 C14.74 8 7.48 8 0 8 C0 5.36 0 2.72 0 0 Z " fill="#F1F2F6" transform="translate(393,36)"/>
<path d="M0 0 C5.28 0 10.56 0 16 0 C16 0.99 16 1.98 16 3 C14.02 3 12.04 3 10 3 C10 13.23 10 23.46 10 34 C8.68 34 7.36 34 6 34 C6 23.77 6 13.54 6 3 C4.02 3 2.04 3 0 3 C0 2.01 0 1.02 0 0 Z " fill="#FFE16B" transform="translate(402,259)"/>
<path d="M0 0 C0.99 0 1.98 0 3 0 C3 11.22 3 22.44 3 34 C1.68 34 0.36 34 -1 34 C-1 25.09 -1 16.18 -1 7 C-2.65 7 -4.3 7 -6 7 C-6 6.01 -6 5.02 -6 4 C-4.35 3.67 -2.7 3.34 -1 3 C-0.67 2.01 -0.34 1.02 0 0 Z " fill="#FFE88F" transform="translate(476,259)"/>
<path d="M0 0 C0.78375 0.04125 1.5675 0.0825 2.375 0.125 C3.67589831 2.72679663 3.54340078 4.7219188 3.5625 7.625 C3.57667969 8.6046875 3.59085937 9.584375 3.60546875 10.59375 C3.375 13.125 3.375 13.125 1.375 15.125 C-3.18055556 14.56944444 -3.18055556 14.56944444 -4.625 13.125 C-4.74987758 11.31572719 -4.80070846 9.50103893 -4.8125 7.6875 C-4.82667969 6.69878906 -4.84085937 5.71007812 -4.85546875 4.69140625 C-4.52987832 1.06576366 -3.64207772 0.17343227 0 0 Z " fill="#FFFBEE" transform="translate(491.625,261.875)"/>
<path d="M0 0 C0.66 0 1.32 0 2 0 C2 10.89 2 21.78 2 33 C1.34 33 0.68 33 0 33 C0 24.09 0 15.18 0 6 C-0.99 5.67 -1.98 5.34 -3 5 C-1.625 2.5 -1.625 2.5 0 0 Z " fill="#FFDE5A" transform="translate(476,259)"/>
<path d="M0 0 C0.33 0 0.66 0 1 0 C1 14.52 1 29.04 1 44 C0.67 44 0.34 44 0 44 C-0.33 35.42 -0.66 26.84 -1 18 C-1.33 18 -1.66 18 -2 18 C-2.23268915 11.71739294 -1.40454548 6.11980533 0 0 Z " fill="#E6EAF4" transform="translate(88,139)"/>
<path d="M0 0 C2.31 0 4.62 0 7 0 C7 2.64 7 5.28 7 8 C4.69 8 2.38 8 0 8 C0 5.36 0 2.72 0 0 Z " fill="#3C5DA8" transform="translate(418,222)"/>
<path d="M0 0 C1.67542976 0.28604898 3.34385343 0.61781233 5 1 C5 2.98 5 4.96 5 7 C2.625 7.625 2.625 7.625 0 8 C-0.66 7.34 -1.32 6.68 -2 6 C-1.44444444 1.44444444 -1.44444444 1.44444444 0 0 Z " fill="#E5EAF3" transform="translate(363,67)"/>
<path d="M0 0 C1.67542976 0.28604898 3.34385343 0.61781233 5 1 C5 2.98 5 4.96 5 7 C2.625 7.625 2.625 7.625 0 8 C-0.66 7.34 -1.32 6.68 -2 6 C-1.44444444 1.44444444 -1.44444444 1.44444444 0 0 Z " fill="#E5E9F3" transform="translate(441,40)"/>
<path d="M0 0 C2.5 0.125 2.5 0.125 3.5 1.125 C3.625 3.625 3.625 3.625 3.5 6.125 C2.5 7.125 2.5 7.125 0 7.25 C-2.5 7.125 -2.5 7.125 -3.5 6.125 C-3.625 3.625 -3.625 3.625 -3.5 1.125 C-2.5 0.125 -2.5 0.125 0 0 Z " fill="#ECEFF6" transform="translate(361.5,20.875)"/>
<path d="M0 0 C0.33 0 0.66 0 1 0 C0.67 5.28 0.34 10.56 0 16 C-0.66 15.67 -1.32 15.34 -2 15 C-2 11.7 -2 8.4 -2 5 C-1.34 5 -0.68 5 0 5 C0 3.35 0 1.7 0 0 Z " fill="#D5DCEC" transform="translate(143,257)"/>
<path d="M0 0 C0.33 0 0.66 0 1 0 C1.33 2.97 1.66 5.94 2 9 C1.01 9.66 0.02 10.32 -1 11 C-1.14285714 3.57142857 -1.14285714 3.57142857 0 0 Z " fill="#C9D2E7" transform="translate(124,126)"/>
<path d="M0 0 C0.33 0 0.66 0 1 0 C1.33 3.3 1.66 6.6 2 10 C1.34 9.67 0.68 9.34 0 9 C-0.66 9.99 -1.32 10.98 -2 12 C-1 3.42857143 -1 3.42857143 0 0 Z " fill="#C9D3E7" transform="translate(132,20)"/>
<path d="M0 0 C1.32 0 2.64 0 4 0 C4 1.65 4 3.3 4 5 C2.68 5 1.36 5 0 5 C0 3.35 0 1.7 0 0 Z " fill="#FFE57C" transform="translate(417,288)"/>
</svg>
